<?xml version="1.0" encoding="utf-8"?>
<!DOCTYPE svg PUBLIC "-//W3C//DTD SVG 20010904//EN" "http://www.w3.org/TR/2001/REC-SVG-20010904/DTD/svg10.dtd">
<svg version="1.0" xmlns="http://www.w3.org/2000/svg" width="317pt" height="602pt" viewBox="0 0 317 602" style="" preserveAspectRatio="xMidYMid meet">
<g fill="#F5EC90FD" stroke="#F5EC90FD">
<path d="M 158.500 136.281 C 155.750 136.711 150.350 137.799 146.500 138.698 C 142.650 139.597 138.705 140.400 137.732 140.482 C 136.760 140.564 136.273 140.939 136.649 141.316 C 137.025 141.692 136.583 142.056 135.667 142.125 C 132.976 142.327 132.805 142.411 125.750 146.988 C 122.038 149.396 119.000 151.929 119.000 152.616 C 119.000 153.303 118.093 154.153 116.985 154.505 C 115.877 154.856 115.198 155.511 115.474 155.959 C 115.751 156.407 115.330 157.311 114.539 157.968 C 112.680 159.510 109.442 166.353 108.054 171.673 C 107.455 173.967 106.445 176.018 105.811 176.230 C 105.146 176.451 104.727 178.392 104.821 180.807 C 104.917 183.255 104.534 185.000 103.901 185.000 C 102.600 185.000 103.212 201.626 104.932 213.000 C 105.556 217.125 106.228 221.625 106.427 223.000 C 107.558 230.848 115.240 244.746 122.808 252.634 C 136.383 266.783 154.746 272.149 172.000 267.008 C 176.125 265.779 181.525 263.731 184.000 262.458 C 190.105 259.318 201.973 249.647 207.550 243.267 C 212.345 237.783 218.258 227.227 217.355 225.766 C 217.065 225.296 217.253 224.370 217.773 223.706 C 218.293 223.043 219.046 220.925 219.446 219.000 C 220.710 212.911 221.019 190.877 219.934 184.089 C 218.621 175.867 213.683 163.410 210.459 160.187 C 209.107 158.834 208.000 157.341 208.000 156.869 C 208.000 155.528 199.297 147.036 198.618 147.715 C 198.285 148.048 197.222 147.628 196.256 146.781 C 195.290 145.934 192.925 144.449 191.000 143.481 C 189.075 142.513 187.169 141.221 186.765 140.610 C 186.344 139.973 186.018 139.926 186.000 140.500 C 185.983 141.050 185.595 140.910 185.138 140.189 C 184.681 139.468 182.775 138.690 180.903 138.461 C 179.031 138.232 174.350 137.472 170.500 136.772 C 166.094 135.971 161.647 135.790 158.500 136.281 M 160.247 140.783 C 159.009 141.727 153.816 145.180 148.707 148.456 C 142.153 152.659 137.866 156.316 134.142 160.883 C 129.047 167.130 120.000 184.122 120.000 187.443 C 120.000 188.335 119.350 190.620 118.555 192.522 C 116.908 196.463 115.323 196.391 110.750 192.166 C 107.417 189.087 107.262 186.127 110.009 177.974 C 113.965 166.230 122.537 154.868 132.500 148.162 C 139.074 143.738 140.735 142.824 147.000 140.188 C 148.375 139.609 152.425 139.120 156.000 139.101 C 162.348 139.067 162.447 139.107 160.247 140.783 M 111.803 204.087 C 115.810 207.033 116.000 207.412 116.000 212.436 C 116.000 215.330 116.300 221.248 116.667 225.587 C 117.269 232.715 117.184 233.327 115.783 231.926 C 113.279 229.422 110.409 222.977 108.691 216.000 C 106.781 208.242 105.915 201.000 106.898 201.000 C 107.287 201.000 109.495 202.389 111.803 204.087 "/></g>
<g fill="#8184B1FD" stroke="#8184B1FD">
<path d="M 152.638 11.585 C 142.508 14.038 134.854 18.391 126.872 26.241 C 120.139 32.863 116.000 38.549 116.000 41.180 C 116.000 41.740 115.359 43.616 114.576 45.349 C 110.678 53.972 109.095 74.233 111.281 87.500 C 113.243 99.401 116.992 113.123 118.096 112.441 C 118.581 112.141 118.709 112.594 118.382 113.448 C 118.054 114.302 118.241 115.000 118.798 115.000 C 119.355 115.000 121.061 117.138 122.590 119.750 C 126.514 126.456 132.232 132.262 137.505 134.896 C 140.364 136.323 141.765 137.584 141.320 138.326 C 140.927 138.981 141.364 138.893 142.308 138.128 C 143.239 137.373 144.053 136.923 144.118 137.128 C 144.184 137.332 144.186 137.170 144.124 136.768 C 143.934 135.529 148.096 135.078 157.750 135.294 C 162.838 135.407 167.001 135.136 167.000 134.691 C 167.000 134.246 167.498 134.190 168.106 134.566 C 168.715 134.942 171.190 135.210 173.606 135.161 C 176.117 135.111 178.000 135.532 178.000 136.143 C 178.000 136.732 178.675 136.955 179.500 136.638 C 180.325 136.322 181.000 136.485 181.000 137.000 C 181.000 137.515 181.681 137.676 182.513 137.357 C 183.345 137.037 184.612 137.263 185.329 137.858 C 186.941 139.196 193.208 137.659 195.014 135.483 C 195.691 134.667 196.765 134.000 197.400 134.000 C 198.036 134.000 199.326 133.100 200.268 132.000 C 201.858 130.143 204.000 129.302 204.000 130.535 C 204.000 130.830 203.278 132.292 202.395 133.785 C 200.525 136.947 200.362 137.135 209.768 125.270 C 212.921 121.293 215.275 118.704 215.000 119.516 C 214.724 120.329 215.398 120.019 216.500 118.824 C 217.600 117.632 217.938 116.985 217.250 117.387 C 215.771 118.252 215.536 116.405 217.009 115.494 C 217.564 115.151 218.941 113.212 220.068 111.185 C 222.066 107.593 222.117 107.905 220.357 112.966 C 219.886 114.323 220.475 113.423 221.667 110.966 C 222.859 108.510 224.130 104.925 224.491 103.000 C 224.853 101.075 225.603 97.475 226.159 95.000 C 226.714 92.525 227.400 84.246 227.684 76.602 C 228.089 65.654 227.841 61.196 226.512 55.602 C 224.881 48.730 218.148 34.005 215.364 31.221 C 214.614 30.471 214.000 29.506 214.000 29.076 C 214.000 27.544 201.698 18.664 195.015 15.372 C 184.365 10.125 165.598 8.448 152.638 11.585 M 171.000 14.098 C 171.000 14.427 169.088 15.527 166.750 16.543 C 157.080 20.746 145.422 29.646 139.000 37.730 C 136.255 41.185 133.000 45.912 133.000 46.444 C 133.000 46.732 131.650 49.755 130.000 53.161 C 128.350 56.568 127.000 59.868 127.000 60.496 C 127.000 61.123 126.304 63.981 125.453 66.847 L 123.906 72.057 119.371 68.800 C 116.876 67.008 114.613 65.183 114.341 64.743 C 113.692 63.692 116.906 50.859 118.222 49.250 C 118.785 48.563 118.934 48.000 118.554 48.000 C 118.175 48.000 118.735 46.763 119.801 45.250 C 120.866 43.738 122.073 41.421 122.483 40.102 C 122.893 38.783 126.665 34.261 130.864 30.054 C 139.484 21.419 150.003 15.464 158.500 14.410 C 161.250 14.069 163.615 13.685 163.756 13.556 C 164.319 13.040 171.000 13.540 171.000 14.098 M 118.416 78.907 C 119.458 80.058 120.915 81.000 121.655 81.000 C 122.685 81.000 123.015 83.280 123.062 90.750 C 123.096 96.113 123.344 102.413 123.612 104.750 C 123.880 107.088 123.740 108.995 123.300 108.990 C 122.138 108.974 116.897 97.340 115.422 91.500 C 114.728 88.750 113.873 83.883 113.523 80.685 C 112.932 75.278 113.015 74.938 114.705 75.842 C 115.704 76.377 117.375 77.756 118.416 78.907 "/></g>
<g fill="#C590BCFD" stroke="#C590BCFD">
<path d="M 238.303 108.982 C 235.995 109.474 231.305 111.009 227.882 112.392 C 224.458 113.775 221.284 114.676 220.829 114.394 C 220.373 114.112 219.988 114.471 219.972 115.191 C 219.957 115.911 218.375 117.625 216.456 119.000 C 208.688 124.566 196.931 141.772 198.357 145.488 C 199.332 148.028 200.359 147.187 203.963 140.895 C 208.292 133.337 219.598 122.515 227.588 118.281 C 238.655 112.417 252.742 110.396 263.557 113.119 C 268.525 114.370 269.472 116.000 265.230 116.000 C 260.930 116.000 248.449 119.744 242.171 122.917 C 229.632 129.256 219.413 138.761 212.096 150.893 C 209.823 154.661 209.194 156.502 210.007 157.004 C 210.647 157.400 211.177 158.123 211.185 158.612 C 211.193 159.100 211.605 159.388 212.100 159.250 C 212.595 159.113 213.000 159.868 213.000 160.929 C 213.000 161.989 213.788 163.645 214.750 164.607 C 215.713 165.570 216.388 166.502 216.250 166.679 C 215.414 167.754 216.177 170.009 217.170 169.395 C 217.938 168.921 218.137 169.201 217.749 170.212 C 217.424 171.058 217.836 173.045 218.665 174.626 C 219.493 176.207 220.278 179.075 220.408 181.000 C 220.538 182.925 220.998 185.289 221.430 186.252 C 221.862 187.216 221.934 189.128 221.589 190.502 C 221.227 191.942 221.394 193.000 221.981 193.000 C 223.147 193.000 223.387 202.278 222.250 203.420 C 221.838 203.835 221.433 206.722 221.352 209.837 C 221.170 216.781 220.149 222.484 218.530 225.604 C 217.821 226.972 217.559 229.499 217.905 231.629 C 218.466 235.080 218.888 235.443 224.989 237.725 C 234.836 241.407 247.364 241.187 260.000 237.110 C 270.171 233.828 280.137 228.493 287.336 222.475 C 289.787 220.427 292.148 218.819 292.583 218.903 C 293.018 218.987 293.485 218.300 293.621 217.378 C 293.756 216.455 294.273 215.430 294.770 215.100 C 295.266 214.770 297.266 211.575 299.213 208.000 C 309.109 189.836 313.204 169.756 310.068 154.777 C 309.409 151.629 308.705 147.804 308.504 146.277 C 308.302 144.749 308.105 143.950 308.066 144.500 C 308.026 145.050 306.411 142.357 304.476 138.516 C 298.373 126.399 284.294 115.527 268.909 111.050 C 260.618 108.637 244.895 107.575 238.303 108.982 "/></g>
<g fill="#C590BCFD" stroke="#C590BCFD">
<path d="M 61.977 34.682 C 52.057 37.546 46.115 40.619 38.262 46.946 C 24.944 57.675 17.840 78.984 20.908 99.000 C 22.477 109.231 26.024 120.376 27.304 119.096 C 27.967 118.433 27.814 116.105 26.850 112.157 C 26.051 108.890 25.710 105.380 26.092 104.358 C 26.698 102.735 26.868 102.702 27.442 104.101 C 27.804 104.981 27.965 106.304 27.800 107.039 C 27.491 108.419 34.027 112.117 36.887 112.181 C 37.774 112.200 41.126 111.250 44.335 110.069 C 51.790 107.327 64.768 105.654 72.612 106.426 C 80.320 107.184 86.882 109.409 94.396 113.812 C 101.914 118.218 104.147 120.189 109.301 126.977 C 111.608 130.014 113.765 132.725 114.096 133.000 C 114.427 133.275 116.160 136.583 117.948 140.351 C 120.313 145.336 121.498 146.902 122.299 146.101 C 123.100 145.300 123.095 144.695 122.278 143.878 C 121.661 143.261 121.412 142.091 121.724 141.277 C 122.036 140.464 121.663 139.364 120.896 138.834 C 119.893 138.141 120.135 138.048 121.755 138.503 C 123.307 138.940 124.197 138.649 124.612 137.569 C 125.429 135.439 127.996 135.575 128.015 137.750 C 128.028 139.152 128.206 139.222 128.915 138.103 C 129.512 137.160 128.855 135.170 126.897 131.988 C 115.836 114.011 108.929 87.302 110.376 68.104 C 111.152 57.810 112.869 48.499 114.633 45.030 C 115.384 43.552 115.493 42.613 114.894 42.772 C 114.331 42.921 112.662 42.191 111.185 41.150 C 97.999 31.851 79.985 29.483 61.977 34.682 M 74.493 37.000 C 74.837 37.000 74.840 36.550 74.500 36.000 C 73.786 34.845 76.296 34.629 77.416 35.750 C 77.829 36.162 80.716 36.556 83.833 36.627 C 95.130 36.880 99.044 37.599 101.275 39.831 C 103.313 41.868 103.329 42.000 101.543 42.000 C 100.498 42.000 98.123 41.451 96.266 40.779 C 93.512 39.783 92.736 39.809 92.051 40.917 C 90.945 42.707 81.649 41.876 79.240 39.772 C 78.283 38.937 75.852 37.958 73.837 37.598 C 70.477 36.996 69.648 37.377 63.837 42.185 C 55.993 48.675 56.377 48.293 50.725 55.257 C 42.518 65.368 37.533 78.889 36.380 94.165 C 36.013 99.024 35.607 103.000 35.477 103.000 C 35.348 103.000 32.712 101.842 29.621 100.427 C 24.098 97.898 24.000 97.780 24.008 93.677 C 24.028 82.613 27.975 68.752 33.680 59.714 C 37.573 53.547 46.722 44.908 52.808 41.652 C 59.627 38.004 69.962 35.082 72.184 36.173 C 73.111 36.628 74.150 37.000 74.493 37.000 M 77.820 94.750 C 78.235 97.675 83.000 98.030 83.000 95.136 C 83.000 93.673 84.011 93.133 87.693 92.629 C 92.770 91.933 94.430 92.716 93.426 95.333 C 92.968 96.526 91.582 97.000 88.548 97.000 C 85.580 97.000 83.768 97.599 82.500 99.000 C 81.505 100.100 80.247 101.000 79.705 101.000 C 79.164 101.000 78.221 101.611 77.610 102.357 C 76.215 104.063 68.359 103.377 67.633 101.487 C 67.276 100.556 68.574 99.971 72.064 99.491 C 74.779 99.118 77.000 98.405 77.000 97.906 C 77.000 97.408 76.507 97.000 75.904 97.000 C 75.301 97.000 72.264 96.232 69.154 95.293 L 63.500 93.587 67.000 92.902 C 68.925 92.526 72.075 92.281 74.000 92.359 C 76.816 92.472 77.562 92.940 77.820 94.750 M 51.000 96.108 C 51.000 96.779 51.948 96.979 53.402 96.614 C 56.807 95.759 61.764 96.944 62.469 98.779 C 63.396 101.196 62.056 101.794 54.250 102.443 L 47.000 103.046 47.000 99.690 C 47.000 97.844 47.300 96.033 47.667 95.667 C 48.735 94.598 51.000 94.898 51.000 96.108 M 79.984 43.726 L 84.146 46.451 81.435 47.355 C 79.329 48.057 78.524 47.900 77.826 46.653 C 77.117 45.387 75.964 45.180 72.365 45.674 C 69.010 46.133 67.568 45.929 66.917 44.899 C 65.761 43.074 65.756 41.731 66.908 42.443 C 67.407 42.751 68.869 42.582 70.158 42.065 C 73.921 40.557 75.570 40.836 79.984 43.726 M 59.391 54.176 C 58.982 54.838 59.611 54.997 61.125 54.616 C 62.431 54.288 62.938 54.277 62.251 54.592 C 61.402 54.982 61.200 56.397 61.618 59.015 L 62.234 62.865 58.138 60.838 C 53.644 58.615 53.096 56.112 56.551 53.587 C 58.613 52.078 60.452 52.460 59.391 54.176 M 113.000 113.259 C 113.000 116.515 112.501 117.831 110.882 118.842 C 109.717 119.569 108.382 119.782 107.914 119.314 C 107.023 118.423 110.950 109.125 112.250 109.046 C 112.663 109.021 113.000 110.917 113.000 113.259 M 96.859 108.000 C 97.845 108.000 97.816 108.327 96.734 109.409 C 95.819 110.324 94.828 110.505 93.912 109.925 C 93.135 109.433 92.725 108.970 93.000 108.897 C 93.275 108.823 93.178 108.811 92.785 108.870 C 91.241 109.101 87.000 106.991 87.000 105.993 C 87.000 105.411 88.013 104.535 89.250 104.045 C 91.049 103.333 91.909 103.640 93.538 105.577 C 94.658 106.910 96.153 108.000 96.859 108.000 M 43.989 91.250 C 43.969 95.368 42.755 100.967 41.986 100.491 C 40.587 99.627 39.899 93.058 40.992 91.014 C 42.428 88.332 44.003 88.456 43.989 91.250 M 108.250 44.392 C 109.213 45.123 109.968 46.796 109.930 48.110 C 109.846 50.949 108.179 55.321 108.070 52.985 C 108.032 52.152 107.126 49.839 106.057 47.845 C 103.580 43.224 104.599 41.621 108.250 44.392 M 41.358 107.490 C 41.744 108.496 41.105 109.187 39.391 109.617 C 36.480 110.347 31.583 108.484 32.503 106.996 C 33.499 105.383 40.704 105.785 41.358 107.490 M 117.478 125.068 C 117.124 126.183 117.377 127.749 118.040 128.548 C 119.007 129.714 118.932 130.000 117.658 130.000 C 115.724 130.000 113.823 126.729 114.504 124.572 C 116.230 119.102 116.043 119.338 117.128 121.270 C 117.675 122.244 117.832 123.953 117.478 125.068 M 105.774 114.465 C 105.600 116.566 105.195 116.841 103.035 116.324 C 99.785 115.548 99.635 115.393 100.345 113.543 C 100.671 112.694 102.071 112.000 103.457 112.000 C 105.525 112.000 105.941 112.443 105.774 114.465 M 46.663 78.000 C 47.827 78.000 48.004 78.721 47.463 81.250 C 46.256 86.882 45.513 86.540 44.749 80.000 C 44.460 77.525 44.436 76.063 44.695 76.750 C 44.954 77.438 45.840 78.000 46.663 78.000 M 97.000 45.941 C 97.000 46.459 96.528 47.173 95.952 47.530 C 94.484 48.437 91.741 47.228 92.496 46.007 C 93.282 44.734 97.000 44.680 97.000 45.941 M 46.060 72.524 C 45.182 75.465 45.171 75.454 45.086 71.550 C 45.030 68.987 45.342 67.942 45.974 68.574 C 46.576 69.176 46.609 70.684 46.060 72.524 M 110.000 96.941 C 110.000 97.459 109.550 98.160 109.000 98.500 C 108.450 98.840 108.000 98.416 108.000 97.559 C 108.000 96.702 108.450 96.000 109.000 96.000 C 109.550 96.000 110.000 96.423 110.000 96.941 "/></g>
<g fill="#E9B840FD" stroke="#E9B840FD">
<path d="M 205.151 246.069 C 198.880 253.620 178.686 267.000 173.561 267.000 C 172.630 267.000 170.983 267.474 169.901 268.053 C 166.251 270.006 153.079 269.436 145.000 266.975 C 140.875 265.718 137.275 264.383 137.000 264.008 C 136.725 263.633 134.389 262.101 131.808 260.603 C 129.228 259.104 125.291 255.777 123.058 253.209 C 120.826 250.640 119.000 249.026 119.000 249.620 C 119.000 251.735 121.210 257.000 122.098 257.000 C 122.594 257.000 123.000 257.604 123.000 258.342 C 123.000 260.636 137.497 277.000 139.530 277.000 C 140.204 277.000 141.373 277.748 142.128 278.663 C 143.249 280.021 151.117 284.232 153.000 284.482 C 153.275 284.518 155.628 285.156 158.229 285.898 C 163.801 287.489 168.078 286.676 178.320 282.081 C 188.792 277.382 201.108 264.104 207.473 250.649 C 211.757 241.594 210.661 239.433 205.151 246.069 "/></g>
<g fill="#C590BCFD" stroke="#C590BCFD">
<path d="M 28.000 220.972 C 28.000 221.618 32.678 226.790 38.396 232.466 C 54.795 248.747 67.757 255.255 84.000 255.368 C 91.001 255.416 93.382 255.003 97.500 253.023 C 100.250 251.700 102.950 250.531 103.500 250.425 C 104.050 250.318 104.457 250.179 104.405 250.115 C 104.352 250.052 106.007 248.216 108.081 246.035 L 111.853 242.071 109.994 238.223 C 108.971 236.106 107.992 233.053 107.817 231.437 C 107.234 226.033 105.632 225.627 100.832 229.667 C 85.995 242.156 62.916 243.449 44.251 232.838 C 41.364 231.197 36.526 227.592 33.501 224.827 C 30.475 222.062 28.000 220.327 28.000 220.972 "/></g>
<g fill="#9C508CFD" stroke="#9C508CFD">
<path d="M 290.000 220.681 C 288.075 222.600 285.305 224.797 283.845 225.562 C 282.384 226.327 280.584 227.555 279.845 228.290 C 277.890 230.234 268.450 234.532 259.381 237.607 C 253.008 239.769 249.587 240.292 241.500 240.346 C 231.959 240.409 227.823 239.544 218.977 235.633 C 217.445 234.956 216.828 236.007 213.494 244.976 C 212.230 248.378 212.276 248.503 215.619 250.775 C 217.498 252.051 219.547 252.780 220.172 252.394 C 220.838 251.982 221.035 252.134 220.648 252.760 C 220.257 253.394 221.925 254.578 224.744 255.665 C 229.871 257.643 242.935 258.204 246.500 256.600 C 247.600 256.105 249.301 255.543 250.280 255.351 C 252.859 254.847 261.781 250.218 267.000 246.678 C 273.246 242.440 285.799 229.367 290.000 222.724 L 293.500 217.191 290.000 220.681 "/></g>
<g fill="#C590BCFD" stroke="#C590BCFD">
<path d="M 220.864 254.700 C 221.847 255.091 221.428 255.920 219.364 257.667 L 216.500 260.092 220.000 258.450 L 223.500 256.808 219.729 259.994 C 217.655 261.746 215.259 264.531 214.405 266.183 C 213.551 267.835 212.605 268.938 212.302 268.636 C 212.000 268.333 212.726 266.434 213.917 264.417 C 215.107 262.399 215.940 260.607 215.768 260.435 C 215.190 259.857 210.946 266.686 210.525 268.871 C 210.128 270.932 210.437 271.026 217.166 270.887 C 221.047 270.808 224.510 271.139 224.861 271.623 C 225.213 272.107 226.722 273.133 228.216 273.902 C 229.710 274.672 230.721 275.642 230.464 276.057 C 229.729 277.247 234.413 275.804 235.235 274.588 C 236.482 272.740 236.077 266.233 234.463 262.200 C 233.110 258.817 232.335 258.208 227.966 257.088 C 225.237 256.388 222.752 255.408 222.443 254.908 C 222.135 254.409 221.346 254.036 220.691 254.079 C 219.940 254.129 220.004 254.358 220.864 254.700 "/></g>
<g fill="#F5EC90FD" stroke="#F5EC90FD">
<path d="M 155.679 287.821 C 157.183 289.326 157.452 292.000 156.098 292.000 C 155.045 292.000 152.743 297.593 152.599 300.500 C 152.528 301.938 153.062 302.434 154.500 302.263 C 158.846 301.749 163.734 301.819 168.616 302.464 C 175.296 303.348 175.934 301.831 172.293 293.717 C 170.038 288.694 169.821 287.552 171.034 287.112 C 171.840 286.819 168.418 286.561 163.429 286.539 C 155.910 286.507 154.583 286.726 155.679 287.821 "/></g>
<g fill="#E595B0FD" stroke="#E595B0FD">
<path d="M 67.000 92.902 L 63.500 93.587 69.154 95.293 C 72.264 96.232 75.301 97.000 75.904 97.000 C 76.507 97.000 77.000 97.408 77.000 97.906 C 77.000 98.405 74.779 99.118 72.064 99.491 C 68.574 99.971 67.276 100.556 67.633 101.487 C 68.359 103.377 76.215 104.063 77.610 102.357 C 78.221 101.611 79.164 101.000 79.705 101.000 C 80.247 101.000 81.505 100.100 82.500 99.000 C 83.768 97.599 85.580 97.000 88.548 97.000 C 91.582 97.000 92.968 96.526 93.426 95.333 C 94.430 92.716 92.770 91.933 87.693 92.629 C 84.011 93.133 83.000 93.673 83.000 95.136 C 83.000 98.030 78.235 97.675 77.820 94.750 C 77.562 92.940 76.816 92.472 74.000 92.359 C 72.075 92.281 68.925 92.526 67.000 92.902 "/></g>
<g fill="#E595B0FD" stroke="#E595B0FD">
<path d="M 69.631 35.702 C 68.308 37.025 69.145 37.508 73.164 37.739 C 75.449 37.870 78.142 38.723 79.149 39.635 C 81.588 41.843 90.907 42.768 92.051 40.917 C 92.736 39.809 93.512 39.783 96.266 40.779 C 98.123 41.451 100.498 42.000 101.543 42.000 C 103.329 42.000 103.313 41.868 101.275 39.831 C 99.044 37.599 95.130 36.880 83.833 36.627 C 80.716 36.556 77.829 36.162 77.416 35.750 C 76.296 34.629 73.786 34.845 74.500 36.000 C 75.280 37.262 74.383 37.275 72.066 36.035 C 71.074 35.505 69.979 35.355 69.631 35.702 "/></g>
<g fill="#E595B0FD" stroke="#E595B0FD">
<path d="M 47.667 95.667 C 47.300 96.033 47.000 97.844 47.000 99.690 L 47.000 103.046 54.250 102.443 C 62.056 101.794 63.396 101.196 62.469 98.779 C 61.764 96.944 56.807 95.759 53.402 96.614 C 51.948 96.979 51.000 96.779 51.000 96.108 C 51.000 94.898 48.735 94.598 47.667 95.667 "/></g>
<g fill="#8184B1FD" stroke="#8184B1FD">
<path d="M 150.212 540.750 C 150.329 541.163 149.843 542.551 149.131 543.836 C 148.420 545.120 148.096 546.429 148.410 546.744 C 148.725 547.058 148.481 547.920 147.869 548.658 C 147.256 549.396 147.051 550.000 147.413 550.000 C 147.774 550.000 147.647 550.791 147.129 551.759 C 145.566 554.680 144.868 568.138 145.976 574.000 C 147.021 579.525 147.674 582.286 148.048 582.750 C 148.299 583.061 148.709 584.674 148.875 586.000 C 148.944 586.550 149.414 587.000 149.919 587.000 C 150.470 587.000 150.487 585.697 149.960 583.750 C 147.959 576.349 147.558 573.065 147.610 564.500 C 147.659 556.533 148.193 553.505 151.624 541.750 C 151.905 540.788 151.654 540.000 151.067 540.000 C 150.480 540.000 150.096 540.338 150.212 540.750 "/></g>
<g fill="#8184B1FD" stroke="#8184B1FD">
<path d="M 166.341 322.500 C 166.866 327.655 168.282 337.228 170.554 351.000 C 170.872 352.925 171.215 355.475 171.316 356.667 C 171.579 359.762 172.998 360.807 173.012 357.917 C 173.037 352.926 169.644 331.475 168.734 330.875 C 168.212 330.531 168.088 329.298 168.458 328.134 C 168.827 326.970 168.776 325.451 168.344 324.759 C 167.912 324.067 167.533 322.287 167.501 320.805 C 167.469 319.323 167.058 317.748 166.586 317.305 C 166.112 316.860 166.003 319.180 166.341 322.500 "/></g>
<g fill="#E595B0FD" stroke="#E595B0FD">
<path d="M 70.158 42.065 C 68.869 42.582 67.407 42.751 66.908 42.443 C 65.756 41.731 65.761 43.074 66.917 44.899 C 67.568 45.929 69.010 46.133 72.365 45.674 C 75.964 45.180 77.117 45.387 77.826 46.653 C 78.524 47.900 79.329 48.057 81.435 47.355 L 84.146 46.451 79.984 43.726 C 75.570 40.836 73.921 40.557 70.158 42.065 "/></g>
<g fill="#8184B1FD" stroke="#8184B1FD">
<path d="M 187.598 475.250 C 187.900 477.038 188.563 480.660 189.073 483.299 C 190.670 491.567 190.079 501.266 187.461 509.750 C 187.036 511.128 187.188 512.000 187.852 512.000 C 188.453 512.000 188.653 511.258 188.299 510.336 C 187.835 509.128 188.023 508.896 188.985 509.490 C 189.883 510.046 190.071 509.924 189.568 509.111 C 189.161 508.452 189.255 507.370 189.778 506.706 C 191.050 505.090 191.025 505.687 190.809 482.250 C 190.798 481.013 190.359 480.000 189.835 480.000 C 189.311 480.000 189.132 479.596 189.437 479.103 C 190.207 477.856 188.940 472.000 187.900 472.000 C 187.433 472.000 187.297 473.463 187.598 475.250 "/></g>
<g fill="#8184B1FD" stroke="#8184B1FD">
<path d="M 166.000 374.930 C 166.000 378.354 170.392 391.876 171.318 391.304 C 171.951 390.912 172.079 391.353 171.653 392.463 C 171.275 393.448 171.439 394.824 172.018 395.521 C 172.597 396.219 172.979 397.174 172.867 397.645 C 172.459 399.358 174.241 405.969 174.986 405.509 C 175.775 405.021 173.823 396.152 170.032 383.000 C 167.985 375.899 166.000 371.925 166.000 374.930 "/></g>
<g fill="#8184B1FD" stroke="#8184B1FD">
<path d="M 172.355 462.500 C 171.077 464.733 171.338 469.738 172.810 471.210 C 173.940 472.340 173.187 476.000 171.824 476.000 C 171.306 476.000 171.200 475.438 171.588 474.750 C 172.152 473.750 172.024 473.750 170.947 474.750 C 170.206 475.438 169.894 476.000 170.252 476.000 C 170.611 476.000 169.801 477.191 168.452 478.646 C 165.781 481.529 165.346 483.000 167.167 483.000 C 167.808 483.000 168.081 482.748 167.773 482.439 C 167.464 482.131 168.231 480.860 169.475 479.615 L 171.739 477.352 173.081 479.426 C 174.319 481.337 174.401 481.202 174.131 477.700 C 173.970 475.610 174.380 473.247 175.042 472.450 C 175.703 471.652 175.852 470.993 175.372 470.985 C 174.893 470.976 175.175 470.484 176.000 469.890 C 177.266 468.980 177.227 468.899 175.750 469.374 C 173.971 469.947 173.781 469.389 173.579 463.000 C 173.504 460.618 173.446 460.594 172.355 462.500 "/></g>
<g fill="#E595B0FD" stroke="#E595B0FD">
<path d="M 56.551 53.587 C 53.096 56.112 53.644 58.615 58.138 60.838 L 62.234 62.865 61.618 59.015 C 61.200 56.397 61.402 54.982 62.251 54.592 C 62.938 54.277 62.431 54.288 61.125 54.616 C 59.611 54.997 58.982 54.838 59.391 54.176 C 60.452 52.460 58.613 52.078 56.551 53.587 "/></g>
<g fill="#8184B1FD" stroke="#8184B1FD">
<path d="M 196.638 365.500 C 196.955 366.325 196.758 367.000 196.201 367.000 C 195.643 367.000 195.437 368.013 195.741 369.250 C 196.046 370.488 195.919 371.153 195.459 370.728 C 194.628 369.961 194.310 370.676 193.778 374.500 C 193.625 375.600 193.249 376.725 192.943 377.000 C 192.136 377.724 188.000 390.761 188.000 392.580 C 188.000 393.426 188.481 393.821 189.068 393.458 C 189.656 393.095 189.906 392.197 189.624 391.463 C 189.343 390.730 189.557 389.981 190.101 389.800 C 190.644 389.619 191.160 388.352 191.246 386.985 C 191.333 385.618 191.672 384.275 192.000 384.000 C 192.608 383.490 198.036 366.113 198.013 364.750 C 198.006 364.338 197.564 364.000 197.031 364.000 C 196.499 364.000 196.322 364.675 196.638 365.500 "/></g>
<g fill="#8184B1FD" stroke="#8184B1FD">
<path d="M 164.468 393.577 C 165.290 395.545 167.363 399.230 169.075 401.766 C 170.787 404.303 172.360 407.273 172.570 408.366 C 172.781 409.459 173.452 410.661 174.062 411.038 C 174.672 411.415 175.132 412.011 175.085 412.362 C 174.847 414.141 175.161 414.164 177.000 412.500 C 179.565 410.178 179.587 408.615 177.035 409.981 C 175.288 410.916 174.830 410.475 172.912 406.017 C 171.725 403.257 170.359 401.000 169.877 401.000 C 169.395 401.000 169.053 400.663 169.118 400.250 C 169.433 398.257 168.899 396.944 168.000 397.500 C 167.101 398.056 166.567 396.743 166.882 394.750 C 166.947 394.338 166.550 394.000 166.000 394.000 C 165.450 394.000 165.053 393.663 165.118 393.250 C 165.409 391.409 164.918 390.000 163.987 390.000 C 163.392 390.000 163.590 391.477 164.468 393.577 "/></g>
<g fill="#8184B1FD" stroke="#8184B1FD">
<path d="M 216.464 296.212 C 216.073 298.528 215.391 301.115 214.949 301.962 C 213.925 303.919 211.000 313.533 211.000 314.938 C 211.000 315.522 211.436 316.000 211.969 316.000 C 212.501 316.000 212.678 315.325 212.362 314.500 C 212.045 313.675 212.311 313.000 212.952 313.000 C 213.593 313.000 213.828 312.530 213.473 311.956 C 213.118 311.382 213.248 310.370 213.761 309.706 C 216.006 306.806 219.690 292.000 218.167 292.000 C 217.622 292.000 216.856 293.895 216.464 296.212 "/></g>
<g fill="#909090A8" stroke="#909090A8">
<path d="M 179.054 395.000 C 178.838 400.225 178.741 406.035 178.840 407.910 C 178.947 409.937 178.329 412.084 177.316 413.203 C 175.769 414.912 175.765 415.028 177.266 414.451 C 178.536 413.964 178.828 414.298 178.522 415.887 C 178.302 417.026 178.556 418.226 179.086 418.553 C 179.693 418.928 179.938 412.933 179.749 402.324 C 179.517 389.377 179.357 387.689 179.054 395.000 "/></g>
<g fill="#F5EC90FD" stroke="#F5EC90FD">
<path d="M 199.549 265.601 C 195.253 271.277 191.159 275.204 185.500 279.079 C 182.750 280.961 180.275 282.869 180.000 283.318 C 179.119 284.755 192.387 275.604 195.500 272.628 C 197.150 271.050 198.392 269.377 198.260 268.909 C 198.128 268.442 198.887 267.596 199.947 267.028 C 201.007 266.461 202.016 265.030 202.187 263.849 C 202.425 262.214 201.796 262.631 199.549 265.601 "/></g>
<g fill="#E595B0FD" stroke="#E595B0FD">
<path d="M 109.282 113.778 C 106.875 118.865 107.529 120.936 110.882 118.842 C 112.501 117.831 113.000 116.515 113.000 113.259 C 113.000 110.917 112.663 109.021 112.250 109.046 C 111.838 109.071 110.502 111.200 109.282 113.778 "/></g>
<g fill="#E595B0FD" stroke="#E595B0FD">
<path d="M 89.250 104.045 C 88.013 104.535 87.000 105.411 87.000 105.993 C 87.000 106.991 91.241 109.101 92.785 108.870 C 93.178 108.811 93.275 108.823 93.000 108.897 C 92.725 108.970 93.135 109.433 93.912 109.925 C 94.828 110.505 95.819 110.324 96.734 109.409 C 97.816 108.327 97.845 108.000 96.859 108.000 C 96.153 108.000 94.658 106.910 93.538 105.577 C 91.909 103.640 91.049 103.333 89.250 104.045 "/></g>
<g fill="#8184B1FD" stroke="#8184B1FD">
<path d="M 152.244 501.766 C 151.553 501.989 151.242 502.582 151.553 503.085 C 151.864 503.588 151.709 504.000 151.209 504.000 C 150.263 504.000 144.610 514.817 143.500 518.750 C 143.149 519.994 143.307 521.000 143.853 521.000 C 144.397 521.000 145.152 519.538 145.532 517.750 C 145.912 515.963 146.773 513.825 147.446 513.000 C 149.783 510.135 153.534 501.351 152.244 501.766 "/></g>
<g fill="#E595B0FD" stroke="#E595B0FD">
<path d="M 124.612 137.569 C 124.197 138.649 123.307 138.940 121.755 138.503 C 120.135 138.048 119.893 138.141 120.896 138.834 C 121.663 139.364 122.028 140.486 121.705 141.326 C 121.383 142.166 121.689 143.327 122.387 143.906 C 123.328 144.688 124.214 144.202 125.827 142.020 C 127.022 140.403 128.000 138.388 128.000 137.540 C 128.000 135.525 125.388 135.547 124.612 137.569 "/></g>
<g fill="#E595B0FD" stroke="#E595B0FD">
<path d="M 40.992 91.014 C 39.899 93.058 40.587 99.627 41.986 100.491 C 42.755 100.967 43.969 95.368 43.989 91.250 C 44.003 88.456 42.428 88.332 40.992 91.014 "/></g>
<g fill="#E595B0FD" stroke="#E595B0FD">
<path d="M 104.724 43.610 C 104.388 43.945 104.988 45.851 106.057 47.845 C 107.126 49.839 108.032 52.152 108.070 52.985 C 108.179 55.321 109.846 50.949 109.930 48.110 C 110.018 45.101 106.378 41.955 104.724 43.610 "/></g>
<g fill="#909090A8" stroke="#909090A8">
<path d="M 177.765 431.606 C 177.377 432.215 176.828 434.555 176.545 436.806 C 176.262 439.057 175.559 443.007 174.982 445.582 C 173.587 451.807 174.405 452.383 175.984 446.288 C 176.847 442.958 177.419 442.021 177.862 443.213 C 178.213 444.155 178.493 441.680 178.485 437.713 C 178.476 433.746 178.152 430.998 177.765 431.606 "/></g>
<g fill="#F5EC90FD" stroke="#F5EC90FD">
<path d="M 114.000 246.391 C 114.000 247.667 117.995 255.210 120.851 259.325 C 122.692 261.978 124.304 264.866 124.433 265.742 C 124.561 266.617 125.349 267.434 126.183 267.556 C 127.206 267.707 126.483 265.942 123.964 262.140 C 121.909 259.038 119.005 254.138 117.509 251.250 C 115.120 246.636 114.000 245.086 114.000 246.391 "/></g>
<g fill="#8184B1FD" stroke="#8184B1FD">
<path d="M 146.581 308.768 C 147.391 311.370 148.324 314.738 148.652 316.250 C 149.246 318.982 151.032 320.141 150.965 317.750 C 150.878 314.651 147.347 304.477 146.286 304.268 C 145.433 304.100 145.514 305.345 146.581 308.768 "/></g>
<g fill="#E595B0FD" stroke="#E595B0FD">
<path d="M 32.503 106.996 C 31.583 108.484 36.480 110.347 39.391 109.617 C 41.105 109.187 41.744 108.496 41.358 107.490 C 40.704 105.785 33.499 105.383 32.503 106.996 "/></g>
<g fill="#8184B1FD" stroke="#8184B1FD">
<path d="M 99.000 270.285 C 99.000 271.057 100.099 272.968 101.443 274.532 C 102.787 276.096 103.660 277.741 103.384 278.188 C 103.108 278.634 103.385 279.000 104.000 279.000 C 104.615 279.000 104.840 279.450 104.500 280.000 C 104.160 280.550 104.359 281.000 104.941 281.000 C 105.523 281.000 105.947 281.338 105.882 281.750 C 105.567 283.743 106.101 285.056 107.000 284.500 C 107.550 284.160 108.000 284.584 108.000 285.441 C 108.000 286.298 108.432 287.113 108.959 287.250 C 109.487 287.388 109.214 286.150 108.353 284.500 C 107.492 282.850 105.463 278.925 103.844 275.778 C 100.811 269.883 99.000 267.829 99.000 270.285 "/></g>
<g fill="#8184B1FD" stroke="#8184B1FD">
<path d="M 173.263 500.160 C 173.173 501.348 172.515 502.691 171.800 503.145 C 171.085 503.598 170.907 503.976 171.405 503.985 C 171.903 503.993 171.521 504.872 170.557 505.937 C 169.593 507.002 169.100 508.352 169.461 508.937 C 169.822 509.522 169.754 510.003 169.309 510.006 C 168.864 510.010 167.712 511.398 166.748 513.090 C 165.593 515.121 165.423 516.029 166.248 515.760 C 168.440 515.045 176.149 498.000 174.280 498.000 C 173.810 498.000 173.352 498.972 173.263 500.160 "/></g>
<g fill="#8184B1FD" stroke="#8184B1FD">
<path d="M 178.764 363.000 C 177.664 366.735 177.850 375.789 179.042 376.526 C 179.741 376.958 179.988 374.427 179.792 368.835 C 179.597 363.275 179.255 361.332 178.764 363.000 "/></g>
<g fill="#E595B0FD" stroke="#E595B0FD">
<path d="M 115.567 121.250 C 115.255 122.213 114.777 123.708 114.504 124.572 C 113.823 126.729 115.724 130.000 117.658 130.000 C 118.932 130.000 119.007 129.714 118.040 128.548 C 117.377 127.749 117.124 126.183 117.478 125.068 C 117.832 123.953 117.675 122.244 117.128 121.270 C 116.185 119.590 116.106 119.589 115.567 121.250 "/></g>
<g fill="#E595B0FD" stroke="#E595B0FD">
<path d="M 100.345 113.543 C 99.635 115.393 99.785 115.548 103.035 116.324 C 105.195 116.841 105.600 116.566 105.774 114.465 C 105.941 112.443 105.525 112.000 103.457 112.000 C 102.071 112.000 100.671 112.694 100.345 113.543 "/></g>
<g fill="#8184B1FD" stroke="#8184B1FD">
<path d="M 177.750 287.575 C 177.338 287.992 177.014 291.071 177.030 294.417 C 177.054 299.046 177.305 300.081 178.083 298.746 C 179.229 296.776 178.920 286.391 177.750 287.575 "/></g>
<g fill="#909090A8" stroke="#909090A8">
<path d="M 179.750 424.402 C 177.206 426.933 177.478 429.704 180.250 429.500 C 181.488 429.409 182.455 428.809 182.400 428.167 C 182.345 427.525 182.188 427.113 182.051 427.250 C 181.915 427.388 181.735 426.411 181.651 425.080 C 181.507 422.779 181.414 422.746 179.750 424.402 "/></g>
<g fill="#9C508CFD" stroke="#9C508CFD">
<path d="M 129.729 137.263 C 129.403 138.112 129.372 139.707 129.660 140.808 C 130.042 142.269 129.718 142.767 128.459 142.654 C 127.510 142.569 126.609 143.289 126.455 144.255 C 126.301 145.220 126.593 145.751 127.104 145.436 C 127.615 145.120 127.726 144.366 127.352 143.761 C 126.921 143.063 127.253 142.883 128.260 143.270 C 129.272 143.658 130.402 143.036 131.371 141.557 C 132.626 139.642 132.667 138.927 131.607 137.477 C 130.486 135.944 130.246 135.916 129.729 137.263 "/></g>
<g fill="#E595B0FD" stroke="#E595B0FD">
<path d="M 44.749 80.000 C 45.513 86.540 46.256 86.882 47.463 81.250 C 48.004 78.721 47.827 78.000 46.663 78.000 C 45.840 78.000 44.954 77.438 44.695 76.750 C 44.436 76.063 44.460 77.525 44.749 80.000 "/></g>
<g fill="#8184B1FD" stroke="#8184B1FD">
<path d="M 181.000 442.719 C 181.000 444.318 181.872 446.303 183.000 447.268 C 184.906 448.900 185.000 448.885 185.000 446.931 C 185.000 445.804 184.550 445.160 184.000 445.500 C 183.435 445.849 183.000 445.030 183.000 443.618 C 183.000 442.243 182.550 440.840 182.000 440.500 C 181.423 440.143 181.000 441.082 181.000 442.719 "/></g>
<g fill="#909090A8" stroke="#909090A8">
<path d="M 182.000 449.559 C 182.000 450.416 181.550 450.840 181.000 450.500 C 179.751 449.728 179.730 451.025 180.961 452.971 C 182.099 454.771 182.633 454.309 183.527 450.748 C 183.969 448.989 183.818 448.000 183.108 448.000 C 182.499 448.000 182.000 448.702 182.000 449.559 "/></g>
<g fill="#8184B1FD" stroke="#8184B1FD">
<path d="M 118.835 306.786 C 119.570 307.302 120.086 308.030 119.982 308.405 C 119.878 308.779 120.354 310.442 121.041 312.099 C 121.917 314.213 122.604 314.796 123.344 314.056 C 124.085 313.315 124.025 313.000 123.141 313.000 C 122.449 313.000 122.160 312.550 122.500 312.000 C 122.840 311.450 122.615 311.000 122.000 311.000 C 121.385 311.000 121.160 310.550 121.500 310.000 C 121.840 309.450 121.641 309.000 121.059 309.000 C 120.477 309.000 120.113 308.494 120.250 307.875 C 120.388 307.256 119.825 306.547 119.000 306.299 C 117.810 305.941 117.776 306.041 118.835 306.786 "/></g>
<g fill="#8184B1FD" stroke="#8184B1FD">
<path d="M 143.679 294.859 C 142.674 296.303 144.748 303.000 146.200 303.000 C 146.892 303.000 146.869 302.547 146.131 301.658 C 145.519 300.920 145.303 300.031 145.651 299.682 C 146.000 299.334 145.755 298.410 145.107 297.629 C 144.460 296.849 144.058 295.641 144.215 294.945 C 144.427 294.003 144.290 293.982 143.679 294.859 "/></g>
<g fill="#C590BCFD" stroke="#C590BCFD">
<path d="M 288.500 225.483 C 286.300 228.541 285.175 230.408 286.000 229.633 C 288.399 227.378 290.423 224.641 291.500 222.196 C 292.050 220.946 290.700 222.426 288.500 225.483 "/></g>
<g fill="#909090A8" stroke="#909090A8">
<path d="M 181.456 458.054 C 180.882 459.399 180.710 462.075 181.074 464.000 L 181.737 467.500 182.035 463.250 C 182.563 455.723 182.540 455.513 181.456 458.054 "/></g>
<g fill="#8184B1FD" stroke="#8184B1FD">
<path d="M 166.701 467.500 C 165.783 469.425 165.475 471.000 166.016 471.000 C 166.557 471.000 167.000 470.518 167.000 469.929 C 167.000 469.339 167.675 468.182 168.500 467.357 C 170.131 465.726 170.484 464.000 169.185 464.000 C 168.737 464.000 167.619 465.575 166.701 467.500 "/></g>
<g fill="#E595B0FD" stroke="#E595B0FD">
<path d="M 92.496 46.007 C 91.741 47.228 94.484 48.437 95.952 47.530 C 96.528 47.173 97.000 46.459 97.000 45.941 C 97.000 44.680 93.282 44.734 92.496 46.007 "/></g>
<g fill="#9C508CFD" stroke="#9C508CFD">
<path d="M 154.695 136.095 C 155.352 136.752 157.179 136.842 159.620 136.338 L 163.500 135.536 158.575 135.293 C 155.151 135.124 153.968 135.368 154.695 136.095 "/></g>
<g fill="#8184B1FD" stroke="#8184B1FD">
<path d="M 142.352 351.606 C 142.676 352.214 143.420 353.975 144.007 355.519 C 144.707 357.358 145.413 357.987 146.058 357.342 C 146.702 356.698 146.132 355.349 144.403 353.429 C 142.952 351.818 142.029 350.998 142.352 351.606 "/></g>
<g fill="#F5EC90FD" stroke="#F5EC90FD">
<path d="M 129.000 269.956 C 129.000 270.438 130.913 272.280 133.250 274.049 L 137.500 277.267 133.250 273.174 C 130.913 270.922 129.000 269.474 129.000 269.956 "/></g>
<g fill="#C590BCFD" stroke="#C590BCFD">
<path d="M 175.521 403.791 C 175.882 405.601 175.800 407.647 175.338 408.338 C 174.877 409.029 175.255 408.775 176.179 407.774 C 177.692 406.134 177.710 405.685 176.362 403.227 L 174.865 400.500 175.521 403.791 "/></g>
<g fill="#E595B0FD" stroke="#E595B0FD">
<path d="M 25.717 104.974 C 25.436 106.048 25.739 107.368 26.390 107.908 C 27.239 108.614 27.629 108.215 27.771 106.495 C 28.018 103.513 26.410 102.323 25.717 104.974 "/></g>
<g fill="#9C508CFD" stroke="#9C508CFD">
<path d="M 179.073 382.000 C 178.880 385.025 179.039 386.760 179.427 385.855 C 179.816 384.951 179.974 382.476 179.779 380.355 C 179.474 377.043 179.375 377.275 179.073 382.000 "/></g>
<g fill="#8184B1FD" stroke="#8184B1FD">
<path d="M 163.500 518.000 C 163.160 518.550 163.183 519.000 163.552 519.000 C 163.920 519.000 163.159 519.951 161.861 521.113 L 159.500 523.226 162.000 521.741 C 163.375 520.924 164.349 519.911 164.165 519.490 C 163.980 519.068 164.430 518.343 165.165 517.877 C 166.074 517.301 166.120 517.026 165.309 517.015 C 164.654 517.007 163.840 517.450 163.500 518.000 "/></g>
<g fill="#8184B1FD" stroke="#8184B1FD">
<path d="M 143.985 493.046 C 142.133 494.469 141.914 494.961 143.128 494.978 C 144.741 495.000 147.660 492.327 146.878 491.544 C 146.653 491.320 145.352 491.996 143.985 493.046 "/></g>
<g fill="#8184B1FD" stroke="#8184B1FD">
<path d="M 141.432 290.250 C 141.663 291.488 141.885 292.928 141.926 293.450 C 141.967 293.973 142.540 293.860 143.200 293.200 C 144.021 292.379 144.050 292.000 143.294 292.000 C 142.680 292.000 142.420 291.110 142.710 290.000 C 143.001 288.887 142.741 288.000 142.123 288.000 C 141.512 288.000 141.201 289.013 141.432 290.250 "/></g>
<g fill="#C590BCFD" stroke="#C590BCFD">
<path d="M 140.949 529.263 C 140.646 531.333 140.711 533.532 141.092 534.149 C 141.474 534.767 141.722 533.073 141.643 530.386 C 141.506 525.703 141.477 525.657 140.949 529.263 "/></g>
<g fill="#C590BCFD" stroke="#C590BCFD">
<path d="M 278.500 237.449 L 274.500 241.559 278.500 237.449 L 282.500 233.338 278.500 237.449 "/></g>
<g fill="#E595B0FD" stroke="#E595B0FD">
<path d="M 45.086 71.550 C 45.171 75.454 45.182 75.465 46.060 72.524 C 46.609 70.684 46.576 69.176 45.974 68.574 C 45.342 67.942 45.030 68.987 45.086 71.550 "/></g>
<g fill="#8184B1FD" stroke="#8184B1FD">
<path d="M 183.070 434.191 C 183.109 434.911 183.527 436.400 184.000 437.500 C 184.767 439.286 184.867 439.212 184.930 436.809 C 184.968 435.329 184.550 433.840 184.000 433.500 C 183.450 433.160 183.032 433.471 183.070 434.191 "/></g>
<g fill="#8184B1FD" stroke="#8184B1FD">
<path d="M 179.000 429.893 C 179.000 431.420 182.298 432.143 183.066 430.784 C 183.576 429.884 183.375 429.744 182.396 430.315 C 181.565 430.801 181.000 430.699 181.000 430.065 C 181.000 429.479 180.550 429.000 180.000 429.000 C 179.450 429.000 179.000 429.402 179.000 429.893 "/></g>
<g fill="#8184B1FD" stroke="#8184B1FD">
<path d="M 177.624 399.539 C 177.281 400.432 177.041 402.139 177.090 403.332 C 177.154 404.868 177.462 404.521 178.147 402.140 C 179.143 398.679 178.734 396.645 177.624 399.539 "/></g>
<g fill="#8184ADFD" stroke="#8184ADFD">
<path d="M 149.205 363.934 C 150.467 366.372 151.132 367.205 150.683 365.784 C 150.234 364.362 149.201 362.367 148.388 361.350 C 147.575 360.332 147.943 361.495 149.205 363.934 "/></g>
<g fill="#8184B1FD" stroke="#8184B1FD">
<path d="M 172.200 544.200 C 170.676 545.724 170.661 547.000 172.167 547.000 C 172.808 547.000 173.040 546.707 172.682 546.349 C 172.324 545.991 172.812 545.105 173.766 544.381 C 174.719 543.656 175.028 543.049 174.450 543.032 C 173.873 543.014 172.860 543.540 172.200 544.200 "/></g>
<g fill="#8184B1FD" stroke="#8184B1FD">
<path d="M 141.683 522.650 C 141.308 523.026 141.000 523.988 141.000 524.789 C 141.000 525.988 141.273 526.019 142.542 524.965 C 143.402 524.251 143.704 523.304 143.226 522.826 C 142.753 522.353 142.059 522.274 141.683 522.650 "/></g>
<g fill="#8184B1FD" stroke="#8184B1FD">
<path d="M 161.091 476.390 C 160.356 477.276 160.090 478.000 160.500 478.000 C 160.910 478.000 160.627 478.788 159.872 479.750 C 158.630 481.334 158.665 481.370 160.239 480.137 C 161.195 479.387 161.731 478.374 161.430 477.887 C 161.129 477.399 161.396 477.000 162.024 477.000 C 162.653 477.000 163.000 476.501 162.797 475.890 C 162.565 475.196 161.927 475.383 161.091 476.390 "/></g>
<g fill="#8184B1FD" stroke="#8184B1FD">
<path d="M 169.510 460.984 C 169.165 461.543 169.196 462.508 169.579 463.128 C 170.060 463.906 170.548 463.772 171.151 462.695 C 172.120 460.963 170.541 459.316 169.510 460.984 "/></g>
<g fill="#8184B1FD" stroke="#8184B1FD">
<path d="M 172.086 454.000 C 172.116 454.825 172.527 456.400 173.000 457.500 L 173.859 459.500 173.914 457.500 C 173.945 456.400 173.533 454.825 173.000 454.000 C 172.138 452.667 172.037 452.667 172.086 454.000 "/></g>
<g fill="#8184B1FD" stroke="#8184B1FD">
<path d="M 174.271 378.050 C 174.192 379.101 174.549 380.221 175.064 380.539 C 175.579 380.858 176.000 380.218 176.000 379.118 C 176.000 376.511 174.459 375.558 174.271 378.050 "/></g>
<g fill="#8184B1FD" stroke="#8184B1FD">
<path d="M 123.588 315.857 C 123.200 316.486 123.385 317.000 124.000 317.000 C 124.615 317.000 124.869 317.403 124.565 317.895 C 124.260 318.388 124.693 319.052 125.525 319.371 C 126.849 319.879 126.867 319.624 125.667 317.333 C 124.789 315.657 124.040 315.126 123.588 315.857 "/></g>
<g fill="#8184B1FD" stroke="#8184B1FD">
<path d="M 164.389 312.570 C 164.725 313.447 165.000 314.378 165.000 314.641 C 165.000 314.903 165.450 314.840 166.000 314.500 C 167.484 313.583 167.213 312.296 165.389 311.596 C 164.209 311.143 163.941 311.404 164.389 312.570 "/></g>
<g fill="#C590BCFD" stroke="#C590BCFD">
<path d="M 213.500 250.518 C 214.600 251.414 216.400 252.588 217.500 253.128 L 219.500 254.110 217.500 252.482 C 216.400 251.586 214.600 250.412 213.500 249.872 L 211.500 248.890 213.500 250.518 "/></g>
<g fill="#9C508CFD" stroke="#9C508CFD">
<path d="M 110.000 163.000 C 109.361 164.194 109.063 165.396 109.338 165.671 C 109.613 165.946 110.361 165.194 111.000 164.000 C 111.639 162.806 111.937 161.604 111.662 161.329 C 111.387 161.054 110.639 161.806 110.000 163.000 "/></g>
<g fill="#E8B845FD" stroke="#E8B845FD">
<path d="M 117.688 248.696 C 117.406 249.152 117.815 250.644 118.596 252.013 L 120.016 254.500 119.367 251.500 C 118.604 247.971 118.374 247.586 117.688 248.696 "/></g>
<g fill="#8184B1FD" stroke="#8184B1FD">
<path d="M 180.000 469.500 C 180.000 470.325 180.450 471.000 181.000 471.000 C 181.550 471.000 182.000 470.325 182.000 469.500 C 182.000 468.675 181.550 468.000 181.000 468.000 C 180.450 468.000 180.000 468.675 180.000 469.500 "/></g>
<g fill="#8184B1FD" stroke="#8184B1FD">
<path d="M 182.637 458.927 C 182.137 459.650 182.194 460.594 182.774 461.174 C 183.441 461.841 183.998 461.812 184.446 461.087 C 184.816 460.489 184.641 460.000 184.059 460.000 C 183.477 460.000 183.113 459.478 183.250 458.840 C 183.414 458.078 183.204 458.108 182.637 458.927 "/></g>
<g fill="#8184B1FD" stroke="#8184B1FD">
<path d="M 173.015 448.583 C 173.024 449.638 173.487 451.175 174.046 452.000 C 174.787 453.095 174.880 452.691 174.390 450.500 C 173.567 446.823 172.995 446.025 173.015 448.583 "/></g>
<g fill="#8184B1FD" stroke="#8184B1FD">
<path d="M 175.000 387.500 C 175.000 388.325 175.450 389.000 176.000 389.000 C 176.550 389.000 177.000 388.325 177.000 387.500 C 177.000 386.675 176.550 386.000 176.000 386.000 C 175.450 386.000 175.000 386.675 175.000 387.500 "/></g>
<g fill="#8184B1FD" stroke="#8184B1FD">
<path d="M 172.695 363.639 C 171.506 364.828 171.930 366.000 173.550 366.000 C 174.646 366.000 174.849 365.553 174.244 364.472 C 173.774 363.632 173.077 363.257 172.695 363.639 "/></g>
<g fill="#C590BCFD" stroke="#C590BCFD">
<path d="M 174.610 483.500 C 175.433 487.177 176.005 487.975 175.985 485.417 C 175.976 484.363 175.513 482.825 174.954 482.000 C 174.213 480.905 174.120 481.309 174.610 483.500 "/></g>
<g fill="#C590BCFD" stroke="#C590BCFD">
<path d="M 182.731 437.332 C 181.749 439.793 181.808 441.237 182.865 440.584 C 183.340 440.290 183.669 439.026 183.596 437.775 C 183.479 435.781 183.372 435.726 182.731 437.332 "/></g>
<g fill="#C590BCFD" stroke="#C590BCFD">
<path d="M 174.102 368.191 C 174.046 369.671 174.391 371.124 174.869 371.419 C 175.352 371.718 175.398 370.521 174.972 368.728 C 174.249 365.688 174.199 365.657 174.102 368.191 "/></g>
<g fill="#C590BCFD" stroke="#C590BCFD">
<path d="M 267.000 247.500 L 264.628 249.574 267.000 247.500 L 269.372 245.426 267.000 247.500 "/></g>
<g fill="#E595B0FD" stroke="#E595B0FD">
<path d="M 110.553 238.750 C 111.342 240.263 111.990 240.974 111.994 240.332 C 112.004 238.442 110.853 236.000 109.952 236.000 C 109.494 236.000 109.764 237.238 110.553 238.750 "/></g>
<g fill="#E595B0FD" stroke="#E595B0FD">
<path d="M 120.629 132.792 C 120.309 133.309 120.954 134.554 122.063 135.557 C 124.060 137.364 124.066 137.355 122.645 134.617 C 121.856 133.096 120.948 132.274 120.629 132.792 "/></g>
<g fill="#8184ADFD" stroke="#8184ADFD">
<path d="M 177.681 411.856 C 177.230 412.503 176.330 412.714 175.681 412.324 C 174.779 411.783 174.775 411.956 175.665 413.058 C 176.306 413.851 176.868 414.838 176.915 415.250 C 176.962 415.663 177.056 415.775 177.125 415.500 C 177.351 414.594 177.652 413.520 178.079 412.090 C 178.372 411.109 178.250 411.038 177.681 411.856 "/></g>
<g fill="#909090A8" stroke="#909090A8">
<path d="M 175.872 492.250 C 175.545 493.763 175.695 495.000 176.205 495.000 C 176.715 495.000 176.983 493.763 176.800 492.250 L 176.467 489.500 175.872 492.250 "/></g>
<g fill="#909090A8" stroke="#909090A8">
<path d="M 181.574 415.297 C 181.126 416.835 181.039 418.372 181.380 418.713 C 181.929 419.262 182.198 417.875 182.344 413.750 C 182.369 413.063 182.022 413.758 181.574 415.297 "/></g>
<g fill="#8184B1FD" stroke="#8184B1FD">
<path d="M 174.000 488.167 C 174.000 488.808 174.296 489.037 174.658 488.675 C 175.020 488.313 176.032 488.576 176.908 489.259 C 178.317 490.357 178.342 490.298 177.128 488.750 C 175.555 486.745 174.000 486.455 174.000 488.167 "/></g>
<g fill="#8184B1FD" stroke="#8184B1FD">
<path d="M 174.000 372.491 C 174.992 373.693 175.500 373.860 175.500 372.987 C 175.500 372.261 174.825 371.443 174.000 371.171 C 172.667 370.730 172.667 370.877 174.000 372.491 "/></g>
<g fill="#8184B1FD" stroke="#8184B1FD">
<path d="M 146.579 358.872 C 146.196 359.492 146.385 360.000 147.000 360.000 C 147.615 360.000 147.797 360.520 147.405 361.155 C 146.960 361.874 147.130 362.037 147.858 361.588 C 148.597 361.131 148.704 360.294 148.151 359.305 C 147.548 358.228 147.060 358.094 146.579 358.872 "/></g>
<g fill="#8184B1FD" stroke="#8184B1FD">
<path d="M 163.500 307.000 C 163.840 307.550 164.541 308.000 165.059 308.000 C 165.577 308.000 166.000 307.550 166.000 307.000 C 166.000 306.450 165.298 306.000 164.441 306.000 C 163.584 306.000 163.160 306.450 163.500 307.000 "/></g>
<g fill="#8184B1FD" stroke="#8184B1FD">
<path d="M 177.086 303.500 C 177.190 305.394 178.856 308.584 178.914 307.000 C 178.945 306.175 178.533 304.825 178.000 304.000 C 177.467 303.175 177.055 302.950 177.086 303.500 "/></g>
<g fill="#8184B1FD" stroke="#8184B1FD">
<path d="M 219.750 285.577 C 218.657 286.679 218.833 288.000 220.073 288.000 C 220.664 288.000 221.001 287.285 220.823 286.410 C 220.645 285.536 220.163 285.161 219.750 285.577 "/></g>
<g fill="#C590BCFD" stroke="#C590BCFD">
<path d="M 152.400 486.733 C 152.720 487.054 152.432 488.032 151.759 488.908 C 151.040 489.843 151.471 489.700 152.802 488.564 C 154.671 486.967 154.784 486.586 153.443 486.389 C 152.549 486.257 152.079 486.412 152.400 486.733 "/></g>
<g fill="#C590BCFD" stroke="#C590BCFD">
<path d="M 151.408 365.500 C 152.239 367.150 152.938 368.024 152.960 367.441 C 152.982 366.859 152.301 365.509 151.448 364.441 C 150.038 362.679 150.035 362.777 151.408 365.500 "/></g>
<g fill="#C590BCFD" stroke="#C590BCFD">
<path d="M 140.086 287.691 C 140.039 288.896 140.412 290.137 140.915 290.448 C 141.459 290.784 141.494 289.895 141.001 288.257 C 140.294 285.906 140.159 285.823 140.086 287.691 "/></g>
<g fill="#C590BCFD" stroke="#C590BCFD">
<path d="M 98.015 269.750 C 98.028 271.246 98.172 271.282 99.000 270.000 C 99.533 269.175 100.030 268.725 100.103 269.000 C 100.177 269.275 100.184 269.163 100.118 268.750 C 99.872 267.189 98.001 268.079 98.015 269.750 "/></g>
<g fill="#C590BCFD" stroke="#C590BCFD">
<path d="M 260.000 251.642 C 258.625 252.350 258.005 252.945 258.623 252.965 C 259.241 252.984 260.366 252.405 261.123 251.678 C 262.266 250.580 262.075 250.574 260.000 251.642 "/></g>
<g fill="#C590BCFD" stroke="#C590BCFD">
<path d="M 144.500 31.410 L 142.500 33.567 144.500 31.410 L 146.500 29.253 144.500 31.410 "/></g>
<g fill="#818181C4" stroke="#818181C4">
<path d="M 191.684 141.084 C 192.312 141.712 193.391 141.877 194.081 141.450 C 194.930 140.925 194.561 140.556 192.939 140.309 C 191.144 140.034 190.829 140.229 191.684 141.084 "/></g>
<g fill="#E595B0FD" stroke="#E595B0FD">
<path d="M 108.030 232.809 C 108.013 234.118 108.438 234.847 109.012 234.492 C 109.681 234.079 109.692 233.295 109.043 232.183 C 108.196 230.732 108.057 230.818 108.030 232.809 "/></g>
<g fill="#E595B0FD" stroke="#E595B0FD">
<path d="M 218.999 177.743 C 219.706 180.094 219.841 180.177 219.914 178.309 C 219.961 177.104 219.588 175.863 219.085 175.552 C 218.541 175.216 218.506 176.105 218.999 177.743 "/></g>
<g fill="#E595B0FD" stroke="#E595B0FD">
<path d="M 104.000 121.000 L 106.500 123.500 104.000 121.000 L 101.500 118.500 104.000 121.000 "/></g>
<g fill="#E595B0FD" stroke="#E595B0FD">
<path d="M 108.000 97.559 C 108.000 98.416 108.450 98.840 109.000 98.500 C 109.550 98.160 110.000 97.459 110.000 96.941 C 110.000 96.423 109.550 96.000 109.000 96.000 C 108.450 96.000 108.000 96.702 108.000 97.559 "/></g>
<g fill="#9C508CFD" stroke="#9C508CFD">
<path d="M 152.250 297.287 C 150.722 298.647 150.627 300.000 152.059 300.000 C 152.641 300.000 152.894 299.638 152.621 299.195 C 152.347 298.753 152.433 297.892 152.812 297.283 C 153.310 296.481 153.155 296.482 152.250 297.287 "/></g>
<g fill="#9C508CFD" stroke="#9C508CFD">
<path d="M 197.500 267.128 C 196.400 268.414 196.175 268.949 197.000 268.318 C 197.825 267.687 198.725 267.132 199.000 267.085 C 199.275 267.038 199.500 266.503 199.500 265.895 C 199.500 265.287 198.600 265.842 197.500 267.128 "/></g>
<g fill="#9C508CFD" stroke="#9C508CFD">
<path d="M 104.345 176.543 C 104.019 177.392 104.034 178.367 104.376 178.710 C 104.719 179.053 105.000 178.621 105.000 177.750 C 105.000 176.879 105.563 175.940 106.250 175.662 C 107.229 175.267 107.222 175.141 106.219 175.079 C 105.514 175.036 104.671 175.694 104.345 176.543 "/></g>
<g fill="#9C508CFD" stroke="#9C508CFD">
<path d="M 113.428 158.004 L 112.500 160.009 114.405 158.004 C 115.453 156.902 115.870 156.000 115.333 156.000 C 114.795 156.000 113.938 156.902 113.428 158.004 "/></g>
<g fill="#8184ADFD" stroke="#8184ADFD">
<path d="M 181.415 430.138 C 180.981 430.840 181.123 431.042 181.770 430.642 C 182.363 430.276 183.055 430.769 183.308 431.738 C 183.719 433.313 183.780 433.321 183.884 431.809 C 184.029 429.689 182.381 428.574 181.415 430.138 "/></g>
<g fill="#909090A8" stroke="#909090A8">
<path d="M 159.589 479.040 C 158.539 480.125 157.872 481.205 158.107 481.441 C 158.343 481.676 159.203 480.788 160.018 479.468 C 161.485 477.091 161.481 477.087 159.589 479.040 "/></g>
</svg>
