<?xml version="1.0" encoding="utf-8"?>
<!DOCTYPE svg PUBLIC "-//W3C//DTD SVG 20010904//EN" "http://www.w3.org/TR/2001/REC-SVG-20010904/DTD/svg10.dtd">
<svg version="1.0" xmlns="http://www.w3.org/2000/svg" width="502pt" height="502pt" viewBox="0 0 502 502" style="" preserveAspectRatio="xMidYMid meet">
<g fill="#FF9AB8FF" stroke="#FF9AB8FF">
<path d="M 242.000 77.000 C 240.625 77.440 239.769 77.845 240.098 77.900 C 240.427 77.955 238.343 80.363 235.467 83.250 C 229.548 89.193 228.081 93.875 229.957 100.842 C 231.224 105.544 235.283 110.777 238.661 112.061 C 240.450 112.742 241.004 113.720 241.015 116.225 C 241.027 118.820 241.253 119.189 242.100 118.000 C 242.900 116.876 243.001 117.378 242.502 120.000 C 242.135 121.925 241.442 125.975 240.962 129.000 C 239.627 137.402 237.118 150.768 235.517 158.000 C 234.726 161.575 233.768 166.075 233.389 168.000 C 233.010 169.925 232.481 170.866 232.214 170.091 C 231.946 169.316 231.623 171.356 231.495 174.625 C 231.281 180.098 222.349 228.469 217.990 247.760 C 216.963 252.302 215.421 256.722 214.562 257.581 C 213.495 258.648 213.000 258.751 213.000 257.905 C 213.000 257.224 212.739 256.928 212.419 257.248 C 212.099 257.567 212.322 258.732 212.913 259.837 C 213.701 261.309 213.602 263.803 212.545 269.173 C 211.752 273.203 209.222 286.400 206.923 298.500 C 204.625 310.600 202.203 322.525 201.542 325.000 L 200.341 329.500 188.170 305.194 C 181.477 291.825 176.000 280.238 176.000 279.444 C 176.000 278.650 175.565 278.000 175.032 278.000 C 174.500 278.000 168.149 266.188 160.919 251.750 C 153.689 237.313 147.487 225.275 147.137 225.000 C 146.786 224.725 146.367 223.825 146.205 223.000 C 146.043 222.175 144.080 217.850 141.842 213.388 C 137.830 205.392 137.797 205.239 139.528 202.598 C 140.493 201.124 142.110 199.476 143.121 198.935 C 144.146 198.387 145.664 195.525 146.554 192.461 C 148.031 187.382 148.023 186.577 146.455 181.735 C 144.280 175.022 139.933 170.471 133.729 168.410 C 126.902 166.142 116.000 168.141 116.000 171.661 C 116.000 172.397 115.523 173.000 114.941 173.000 C 114.359 173.000 114.220 172.438 114.633 171.750 C 115.048 171.058 114.595 171.170 113.618 172.000 C 112.646 172.825 112.335 173.388 112.926 173.250 C 114.338 172.921 114.429 172.624 111.000 179.500 C 109.354 182.800 107.956 184.825 107.892 184.000 C 107.828 183.175 107.632 184.075 107.454 186.000 C 107.228 188.460 107.364 188.911 107.911 187.517 C 108.546 185.899 108.816 186.267 109.377 189.517 C 110.180 194.171 113.126 200.972 114.346 200.989 C 114.811 200.995 116.386 201.834 117.846 202.854 C 119.306 203.874 121.738 205.008 123.250 205.373 C 124.772 205.741 126.000 206.726 126.000 207.578 C 126.000 208.425 126.421 208.858 126.936 208.540 C 127.451 208.222 128.115 209.883 128.412 212.231 C 129.958 224.458 131.450 242.369 131.473 249.000 C 131.488 253.125 131.780 256.725 132.122 257.000 C 132.463 257.275 133.073 261.952 133.476 267.394 C 134.199 277.163 134.181 277.281 132.076 276.730 L 129.943 276.172 131.896 279.336 C 133.455 281.862 134.171 286.331 135.447 301.500 C 136.326 311.950 137.477 324.550 138.005 329.500 C 139.696 345.359 139.737 345.313 132.208 336.018 C 117.943 318.408 110.488 309.465 109.841 309.186 C 109.441 309.013 104.124 302.868 98.025 295.531 C 91.927 288.193 86.212 281.911 85.325 281.571 C 84.439 281.231 84.007 280.659 84.366 280.301 C 84.725 279.942 84.009 278.575 82.777 277.262 C 80.549 274.891 80.547 274.855 82.418 271.688 C 86.468 264.833 87.143 262.817 87.143 257.571 C 87.143 254.582 86.610 251.092 85.958 249.818 C 83.793 245.582 77.217 240.136 72.846 238.959 C 66.540 237.261 56.000 239.500 56.000 242.538 C 56.000 243.207 55.348 244.297 54.550 244.958 C 51.879 247.175 48.605 255.292 48.901 258.963 C 49.058 260.908 49.257 263.742 49.343 265.261 C 49.433 266.846 49.979 267.838 50.624 267.591 C 51.242 267.354 52.339 268.264 53.061 269.614 C 55.348 273.887 61.257 276.642 68.727 276.918 C 71.398 277.016 74.144 280.875 74.467 284.985 C 74.596 286.624 74.934 287.733 75.218 287.449 C 75.910 286.756 80.552 296.668 81.446 300.750 C 81.838 302.538 82.553 304.000 83.034 304.000 C 83.516 304.000 84.205 305.575 84.566 307.500 C 84.927 309.425 85.649 311.000 86.170 311.000 C 86.692 311.000 86.876 311.392 86.580 311.871 C 86.283 312.350 87.155 314.938 88.516 317.621 C 89.878 320.305 90.994 322.987 90.996 323.583 C 91.004 325.792 97.694 339.973 98.396 339.271 C 98.797 338.870 98.647 339.799 98.062 341.336 C 96.760 344.763 96.713 346.002 97.962 344.028 C 98.741 342.796 99.002 342.877 99.565 344.528 C 99.935 345.613 102.696 352.493 105.700 359.818 C 108.704 367.142 110.917 373.774 110.617 374.556 C 110.317 375.337 110.533 375.869 111.096 375.738 C 112.380 375.439 123.242 401.926 122.562 403.698 C 122.288 404.414 122.493 405.000 123.018 405.000 C 123.872 405.000 125.322 407.806 128.074 414.781 C 128.910 416.900 129.137 416.956 131.249 415.572 C 134.068 413.726 144.225 410.550 153.500 408.616 C 182.162 402.640 237.231 399.742 281.000 401.906 C 325.420 404.102 354.034 408.560 365.586 415.086 L 370.672 417.959 374.955 407.229 C 377.311 401.328 379.815 395.150 380.519 393.500 C 383.912 385.553 389.249 372.392 389.439 371.500 C 389.556 370.950 390.583 368.475 391.720 366.000 C 394.989 358.885 397.940 351.634 398.232 350.000 C 398.379 349.175 398.755 348.275 399.067 348.000 C 399.378 347.725 403.754 337.375 408.790 325.000 C 422.311 291.777 428.994 275.672 429.448 275.219 C 429.670 274.997 431.912 274.623 434.431 274.387 C 446.825 273.230 454.854 262.545 452.146 250.813 C 451.509 248.051 450.082 244.519 448.976 242.966 C 446.356 239.287 440.566 235.748 437.180 235.756 C 435.706 235.760 434.169 235.254 433.765 234.631 C 433.240 233.823 433.026 233.857 433.015 234.750 C 433.007 235.438 432.078 236.000 430.950 236.000 C 428.041 236.000 423.052 238.700 419.194 242.362 C 417.376 244.088 415.576 245.388 415.194 245.250 C 414.813 245.113 414.545 245.450 414.600 246.000 C 414.655 246.550 414.768 246.475 414.850 245.833 C 414.933 245.192 415.225 244.892 415.500 245.167 C 415.775 245.442 415.506 248.126 414.902 251.132 C 413.968 255.785 414.066 257.184 415.562 260.549 C 416.528 262.722 417.367 264.725 417.425 265.000 C 417.483 265.275 417.888 266.063 418.324 266.750 C 418.771 267.454 418.669 268.000 418.090 268.000 C 417.525 268.000 417.328 268.692 417.653 269.537 C 417.977 270.383 417.400 272.062 416.371 273.270 C 414.795 275.120 414.776 275.252 416.250 274.110 C 419.423 271.653 418.082 274.255 412.250 281.869 C 409.088 285.998 406.500 288.772 406.500 288.034 C 406.500 287.136 406.004 287.302 405.000 288.538 C 404.139 289.598 404.032 290.064 404.750 289.633 C 405.438 289.220 406.000 289.273 406.000 289.750 C 406.000 291.304 403.195 294.500 401.832 294.500 C 401.101 294.500 400.458 295.175 400.404 296.000 C 400.165 299.611 399.904 300.071 398.250 299.794 C 397.029 299.589 396.554 300.100 396.678 301.485 C 396.776 302.577 396.541 303.702 396.155 303.985 C 395.769 304.268 394.627 305.797 393.617 307.382 C 392.188 309.625 391.587 309.958 390.906 308.882 C 390.424 308.122 390.017 307.950 390.000 308.500 C 389.983 309.050 389.533 308.825 389.000 308.000 C 388.255 306.847 388.024 307.193 388.003 309.500 C 387.982 311.751 384.919 316.606 375.737 328.942 C 361.396 348.211 362.236 348.741 363.980 321.528 C 364.615 311.613 365.504 297.536 365.955 290.246 C 366.574 280.245 367.214 276.318 368.562 274.246 C 370.282 271.604 370.281 271.556 368.551 272.975 C 366.832 274.385 366.776 273.917 367.301 262.475 C 367.602 255.889 368.323 244.650 368.903 237.500 C 369.969 224.345 370.845 210.747 370.945 205.790 C 370.992 203.484 371.634 202.891 375.250 201.810 C 377.733 201.068 381.209 198.834 383.610 196.436 C 390.779 189.278 391.553 179.634 385.651 171.000 C 383.180 167.385 375.000 161.999 375.000 163.987 C 375.000 164.693 373.071 165.026 369.750 164.893 C 366.433 164.761 363.314 165.298 361.280 166.352 C 359.509 167.269 357.709 167.962 357.280 167.892 C 356.851 167.821 356.646 167.816 356.823 167.882 C 357.001 167.947 355.840 170.363 354.244 173.250 C 349.343 182.113 350.142 189.480 356.674 195.635 C 360.378 199.126 360.872 200.268 358.250 199.275 C 356.583 198.643 356.583 198.696 358.250 200.377 C 360.413 202.559 360.480 205.017 358.448 207.559 C 356.955 209.427 356.919 209.406 357.496 207.000 C 358.003 204.886 357.925 204.772 356.994 206.258 C 356.388 207.225 356.194 208.504 356.563 209.101 C 357.323 210.331 350.036 227.369 349.135 226.469 C 348.814 226.148 348.540 226.924 348.526 228.193 C 348.512 229.462 347.954 230.393 347.286 230.262 C 346.537 230.115 346.315 230.657 346.706 231.676 C 347.165 232.873 346.975 233.103 346.015 232.510 C 345.131 231.963 344.930 232.077 345.410 232.854 C 346.211 234.150 345.146 238.479 344.247 237.581 C 343.934 237.267 343.550 238.246 343.395 239.755 C 342.987 243.715 342.189 247.668 342.034 246.500 C 341.960 245.950 340.685 247.991 339.200 251.036 C 337.715 254.081 336.087 256.781 335.583 257.036 C 335.078 257.291 334.568 258.741 334.448 260.257 C 334.174 263.744 328.987 274.110 327.864 273.416 C 327.401 273.130 327.280 273.567 327.595 274.387 C 327.910 275.207 327.693 276.693 327.114 277.689 C 326.535 278.685 326.047 278.938 326.030 278.250 C 325.973 275.902 324.000 276.993 324.000 279.373 C 324.000 281.585 321.867 287.441 318.491 294.500 C 317.702 296.150 314.648 302.900 311.705 309.500 C 304.495 325.666 303.284 327.864 302.618 326.000 C 302.323 325.175 301.144 320.225 299.997 315.000 C 298.851 309.775 297.445 303.475 296.873 301.000 C 291.210 276.501 287.000 257.310 287.000 255.999 C 287.000 255.119 286.479 253.879 285.841 253.241 C 285.204 252.604 284.525 250.641 284.332 248.879 C 284.139 247.117 283.066 242.036 281.948 237.587 C 280.829 233.139 279.697 228.375 279.432 227.000 C 279.167 225.625 277.781 219.325 276.352 213.000 C 274.924 206.675 273.409 199.925 272.987 198.000 C 271.732 192.276 269.431 182.103 262.472 151.500 C 253.817 113.441 254.084 115.527 257.630 113.683 C 266.060 109.298 270.115 98.426 266.674 89.431 C 262.978 79.769 251.465 73.969 242.000 77.000 M 257.500 331.842 C 259.279 332.844 261.646 335.765 263.314 339.016 C 266.685 345.585 266.407 349.947 262.238 355.949 C 258.874 360.791 255.159 362.500 248.000 362.500 C 241.353 362.500 237.229 359.970 234.104 353.975 C 231.381 348.750 231.434 343.444 234.255 338.826 C 239.738 329.852 249.020 327.063 257.500 331.842 M 331.033 345.517 C 335.333 347.741 337.309 352.254 336.780 358.642 C 336.154 366.189 332.859 369.150 324.879 369.333 C 319.542 369.456 318.793 369.191 315.538 366.037 C 312.237 362.838 312.003 362.202 312.052 356.554 C 312.102 350.701 312.238 350.392 316.160 347.250 C 320.767 343.559 326.055 342.943 331.033 345.517 M 185.296 346.250 C 190.583 351.207 191.545 357.885 187.750 363.279 C 184.263 368.235 182.921 368.934 176.823 368.968 C 171.469 368.998 170.971 368.788 168.073 365.272 C 165.522 362.177 165.000 360.669 165.000 356.389 C 165.000 351.642 165.318 350.946 169.003 347.616 C 172.465 344.488 173.674 344.000 177.951 344.000 C 181.703 344.000 183.476 344.543 185.296 346.250 "/></g>
<g fill="#E87698FF" stroke="#E87698FF">
<path d="M 221.500 401.615 C 218.750 401.805 208.850 402.429 199.500 403.001 C 190.150 403.573 180.025 404.506 177.000 405.075 C 173.975 405.643 170.600 406.135 169.500 406.168 C 165.144 406.298 149.000 409.370 149.000 410.069 C 149.000 410.478 148.100 410.577 147.000 410.290 C 145.838 409.986 145.000 410.259 145.000 410.942 C 145.000 411.589 144.627 411.887 144.171 411.606 C 143.071 410.926 134.226 413.622 131.328 415.520 C 128.871 417.131 128.790 417.025 124.885 407.111 C 124.367 405.798 123.738 404.928 123.487 405.180 C 123.236 405.431 124.178 408.608 125.582 412.240 C 127.956 418.383 128.321 418.812 130.817 418.400 C 132.630 418.101 133.060 418.248 132.143 418.853 C 131.196 419.479 131.121 419.957 131.893 420.434 C 132.502 420.810 133.000 420.780 133.000 420.368 C 133.000 419.955 133.563 420.331 134.250 421.204 C 137.072 424.783 157.937 429.782 179.500 432.044 C 185.550 432.679 193.425 433.871 197.000 434.692 C 200.575 435.513 204.400 436.387 205.500 436.632 C 209.392 437.502 275.654 437.756 286.000 436.941 C 291.775 436.486 300.100 435.868 304.500 435.568 C 320.324 434.488 334.000 432.722 334.000 431.759 C 334.000 431.180 335.428 431.045 337.485 431.431 C 340.504 431.998 340.882 431.855 340.311 430.369 C 339.808 429.057 340.047 428.804 341.326 429.295 C 342.247 429.648 343.000 429.471 343.000 428.901 C 343.000 428.331 343.847 428.134 344.882 428.462 C 346.069 428.839 346.980 428.495 347.350 427.530 C 347.673 426.688 348.514 426.007 349.219 426.015 C 350.125 426.026 350.061 426.337 349.000 427.076 C 347.891 427.849 348.412 427.956 351.000 427.486 C 355.696 426.633 364.979 422.144 365.083 420.676 C 365.129 420.029 365.281 418.461 365.421 417.191 C 365.714 414.525 361.028 411.498 357.882 412.321 C 356.764 412.613 356.252 412.401 356.624 411.800 C 357.021 411.157 356.427 411.047 355.000 411.500 C 353.325 412.032 352.949 411.891 353.530 410.951 C 354.124 409.990 353.545 409.841 351.106 410.329 C 348.830 410.784 348.105 410.639 348.607 409.827 C 349.086 409.052 348.619 408.866 347.156 409.249 C 345.970 409.559 345.000 409.471 345.000 409.053 C 345.000 407.383 304.854 402.476 298.409 403.358 C 296.159 403.666 293.866 403.466 293.312 402.912 C 292.338 401.938 232.468 400.856 221.500 401.615 M 320.533 430.054 C 320.855 430.574 322.329 431.094 323.809 431.209 C 325.558 431.346 325.362 431.433 323.249 431.459 C 321.461 431.482 319.999 431.770 319.999 432.100 C 320.001 433.229 301.759 434.045 300.469 432.974 C 299.591 432.246 299.064 432.391 298.648 433.474 C 298.326 434.314 297.288 435.000 296.340 435.000 C 294.732 435.000 294.735 434.914 296.383 433.709 C 297.950 432.564 297.723 432.390 294.362 432.164 C 287.895 431.728 289.317 431.000 296.633 431.000 C 300.465 431.000 304.092 431.492 304.693 432.093 C 305.481 432.881 306.351 432.882 307.820 432.096 C 308.939 431.497 310.568 431.281 311.439 431.615 C 312.523 432.031 312.853 431.782 312.486 430.825 C 312.087 429.785 312.975 429.386 315.949 429.267 C 318.149 429.180 320.212 429.534 320.533 430.054 M 224.976 431.437 C 225.686 433.305 226.789 433.966 229.701 434.269 C 231.791 434.486 226.300 434.649 217.500 434.631 L 201.500 434.598 213.500 434.000 C 220.100 433.671 225.163 433.256 224.750 433.076 C 223.372 432.477 222.027 432.252 218.250 431.989 C 215.729 431.813 215.238 431.586 216.750 431.294 C 217.988 431.056 219.000 430.442 219.000 429.930 C 219.000 429.419 220.136 429.000 221.525 429.000 C 223.280 429.000 224.332 429.742 224.976 431.437 M 259.500 435.000 C 258.400 435.473 252.325 435.832 246.000 435.798 C 238.431 435.758 235.697 435.485 238.000 435.000 C 243.069 433.933 261.983 433.933 259.500 435.000 M 256.800 430.200 C 257.460 430.860 258.000 431.675 258.000 432.011 C 258.000 433.019 242.084 432.945 241.459 431.934 C 241.131 431.402 243.061 431.000 245.941 431.000 C 248.723 431.000 251.000 430.550 251.000 430.000 C 251.000 428.599 255.349 428.749 256.800 430.200 M 358.000 421.000 L 360.500 422.956 357.375 422.978 C 355.656 422.990 352.844 423.281 351.125 423.625 C 346.930 424.464 347.013 422.437 351.250 420.584 C 355.442 418.751 355.098 418.730 358.000 421.000 M 273.000 416.000 C 273.000 416.550 271.200 417.000 269.000 417.000 C 266.800 417.000 265.000 416.550 265.000 416.000 C 265.000 415.450 266.800 415.000 269.000 415.000 C 271.200 415.000 273.000 415.450 273.000 416.000 M 213.040 419.180 C 211.138 420.103 209.185 420.615 208.702 420.316 C 207.441 419.536 212.121 417.125 214.500 417.329 C 216.050 417.461 215.721 417.878 213.040 419.180 M 336.000 430.000 C 334.625 430.440 332.150 430.792 330.500 430.782 L 327.500 430.763 330.500 430.000 C 332.150 429.580 334.625 429.228 336.000 429.218 L 338.500 429.199 336.000 430.000 M 327.671 425.663 C 326.558 426.775 321.000 427.049 321.000 425.992 C 321.000 425.446 322.650 425.000 324.667 425.000 C 326.683 425.000 328.035 425.298 327.671 425.663 M 197.000 426.000 C 195.732 427.100 194.313 428.000 193.847 428.000 C 193.381 428.000 192.964 428.788 192.921 429.750 C 192.866 430.973 192.679 431.089 192.299 430.135 C 191.996 429.373 193.026 427.731 194.628 426.421 C 198.120 423.565 200.242 423.189 197.000 426.000 M 341.000 415.927 C 341.000 416.436 341.788 417.059 342.750 417.311 C 343.872 417.604 343.551 417.810 341.857 417.884 C 340.345 417.950 338.968 417.358 338.638 416.500 C 338.288 415.586 338.637 415.000 339.531 415.000 C 340.339 415.000 341.000 415.417 341.000 415.927 M 315.500 414.000 C 313.850 414.420 311.375 414.763 310.000 414.763 C 307.770 414.763 307.824 414.681 310.500 414.000 C 312.150 413.580 314.625 413.237 316.000 413.237 C 318.230 413.237 318.176 413.319 315.500 414.000 "/></g>
<g fill="#E87698FF" stroke="#E87698FF">
<path d="M 316.123 132.389 C 312.282 133.762 309.000 137.319 309.000 140.111 C 309.000 141.150 308.438 141.888 307.750 141.750 C 305.799 141.360 305.538 149.372 307.450 150.959 C 308.303 151.666 309.000 153.018 309.000 153.962 C 309.000 154.906 310.157 156.206 311.571 156.850 C 314.031 157.971 314.111 158.268 313.447 163.761 C 313.066 166.917 312.363 169.991 311.886 170.592 C 311.408 171.192 310.856 172.992 310.658 174.592 C 310.152 178.685 308.135 186.179 306.990 188.216 C 306.459 189.160 305.733 192.422 305.375 195.466 C 305.017 198.510 304.412 201.000 304.029 201.000 C 303.646 201.000 303.287 201.563 303.230 202.250 C 302.987 205.187 302.123 209.418 301.954 208.500 C 301.679 207.004 299.912 215.150 299.947 217.750 C 299.964 218.988 299.591 220.000 299.119 220.000 C 298.646 220.000 297.729 222.138 297.080 224.750 C 296.432 227.363 295.236 231.827 294.424 234.671 C 293.612 237.515 293.052 240.215 293.180 240.671 C 293.309 241.127 292.610 243.975 291.629 247.000 C 290.648 250.025 289.631 253.162 289.369 253.972 C 288.949 255.268 288.781 255.268 287.962 253.972 C 285.525 250.119 287.401 260.019 296.873 301.000 C 297.445 303.475 298.851 309.775 299.997 315.000 C 301.144 320.225 302.323 325.175 302.618 326.000 C 303.287 327.871 304.532 325.604 311.678 309.500 C 314.606 302.900 317.405 296.793 317.898 295.929 C 318.390 295.066 320.002 291.336 321.480 287.641 L 324.168 280.924 323.558 256.212 C 323.222 242.620 322.678 227.225 322.348 222.000 C 322.017 216.775 321.641 206.200 321.511 198.500 C 321.381 190.800 321.158 179.118 321.017 172.540 L 320.759 160.580 323.630 159.663 C 327.047 158.571 331.806 154.542 329.831 154.414 C 329.016 154.361 329.176 154.029 330.244 153.559 C 331.204 153.136 331.759 152.419 331.478 151.964 C 331.197 151.510 331.425 150.856 331.984 150.510 C 333.425 149.619 333.289 141.000 331.833 141.000 C 331.192 141.000 330.952 140.715 331.301 140.366 C 332.055 139.611 328.742 135.208 325.945 133.249 C 323.121 131.271 320.011 130.999 316.123 132.389 M 320.891 255.500 C 320.556 258.250 320.218 259.713 320.141 258.750 C 320.047 257.588 319.161 257.000 317.500 257.000 C 315.894 257.000 315.000 256.438 315.000 255.429 C 315.000 253.633 317.335 251.000 318.929 251.000 C 319.548 251.000 320.000 248.889 320.000 246.000 C 320.000 243.250 319.663 241.000 319.250 241.001 C 318.838 241.001 318.450 237.514 318.388 233.251 C 318.326 228.988 318.151 220.540 317.998 214.479 C 317.845 208.417 318.114 202.342 318.595 200.979 C 319.678 197.911 321.791 248.109 320.891 255.500 M 319.047 174.493 C 319.398 183.245 319.021 196.354 318.435 195.768 C 318.124 195.458 317.787 189.945 317.685 183.518 C 317.583 177.091 317.163 172.171 316.750 172.583 C 316.338 172.996 316.000 172.583 316.000 171.667 C 316.000 170.750 316.360 170.000 316.799 170.000 C 317.239 170.000 317.479 168.313 317.332 166.250 L 317.066 162.500 317.956 165.993 C 318.446 167.914 318.937 171.739 319.047 174.493 M 321.836 271.293 C 321.752 278.204 321.529 279.634 320.943 277.027 C 320.513 275.117 319.656 273.385 319.039 273.180 C 318.262 272.921 318.233 272.424 318.944 271.568 C 319.509 270.887 320.050 268.249 320.146 265.705 C 320.471 257.119 321.949 262.006 321.836 271.293 M 304.468 287.752 C 304.451 291.463 304.166 293.600 303.834 292.500 C 303.399 291.054 303.174 291.469 303.024 294.000 C 302.591 301.287 302.407 302.692 302.195 300.309 C 302.088 299.104 301.438 297.770 300.750 297.345 C 300.063 296.921 299.950 296.675 300.500 296.799 C 301.050 296.924 301.577 296.232 301.670 295.263 C 302.492 286.745 303.387 281.000 303.892 281.002 C 304.227 281.003 304.486 284.041 304.468 287.752 M 304.900 223.309 C 304.808 225.349 304.745 225.327 304.000 223.000 C 303.228 220.591 303.196 220.613 303.100 223.625 C 303.045 225.344 302.737 228.269 302.416 230.125 C 301.973 232.681 302.091 233.136 302.900 232.000 C 303.658 230.937 304.018 230.864 304.135 231.750 C 304.341 233.310 304.354 235.339 304.150 234.066 C 304.068 233.553 302.875 233.336 301.500 233.586 C 299.028 234.034 298.066 232.696 300.000 231.500 C 300.550 231.160 301.000 229.588 301.000 228.006 C 301.000 224.136 302.759 219.733 303.998 220.499 C 304.549 220.839 304.955 222.104 304.900 223.309 M 300.000 247.002 C 300.000 248.551 297.394 252.507 296.214 252.750 C 294.917 253.017 294.668 250.839 295.600 247.366 C 296.004 245.862 296.737 245.380 298.086 245.733 C 299.139 246.008 300.000 246.579 300.000 247.002 M 313.202 190.863 C 313.856 189.934 313.952 190.456 313.503 192.500 C 313.141 194.150 312.204 196.210 311.422 197.079 C 310.640 197.947 309.964 199.747 309.921 201.079 C 309.877 202.443 309.602 202.895 309.292 202.114 C 308.990 201.352 309.317 198.202 310.018 195.114 C 310.719 192.026 311.507 190.113 311.768 190.863 C 312.168 192.014 312.392 192.014 313.202 190.863 M 320.000 282.941 C 320.000 284.009 319.550 285.160 319.000 285.500 C 318.450 285.840 318.000 286.991 318.000 288.059 C 318.000 289.127 317.632 290.000 317.183 290.000 C 316.734 290.000 316.836 287.975 317.411 285.500 C 318.472 280.924 320.000 279.414 320.000 282.941 M 316.500 274.000 C 316.160 274.550 314.585 275.000 313.000 275.000 C 311.415 275.000 309.840 274.550 309.500 274.000 C 309.126 273.395 310.509 273.000 313.000 273.000 C 315.491 273.000 316.874 273.395 316.500 274.000 M 312.785 208.633 C 312.353 208.900 312.063 206.504 312.141 203.309 L 312.282 197.500 312.926 202.824 C 313.280 205.752 313.216 208.366 312.785 208.633 M 327.452 136.595 C 328.329 137.472 329.781 139.609 330.678 141.345 C 332.194 144.278 332.192 144.403 330.655 143.128 C 329.745 142.373 329.000 141.168 329.000 140.450 C 329.000 139.732 327.814 138.212 326.365 137.073 C 324.916 135.933 324.209 135.000 324.794 135.000 C 325.379 135.000 326.575 135.718 327.452 136.595 M 315.859 293.000 C 315.859 293.945 315.542 293.761 315.000 292.500 C 314.254 290.763 314.131 290.884 314.070 293.417 C 314.032 295.021 313.721 296.054 313.380 295.713 C 313.039 295.372 313.093 293.385 313.500 291.297 C 314.123 288.094 314.366 287.813 315.049 289.500 C 315.495 290.600 315.859 292.175 315.859 293.000 M 305.900 308.750 C 305.955 309.438 305.550 310.000 305.000 310.000 C 304.450 310.000 304.045 308.313 304.100 306.250 C 304.189 302.903 304.285 302.769 305.000 305.000 C 305.440 306.375 305.845 308.063 305.900 308.750 M 309.000 284.000 C 309.000 284.550 308.100 285.000 307.000 285.000 C 305.900 285.000 305.000 284.550 305.000 284.000 C 305.000 283.450 305.900 283.000 307.000 283.000 C 308.100 283.000 309.000 283.450 309.000 284.000 M 316.771 283.813 C 316.989 284.466 316.679 285.000 316.083 285.000 C 315.488 285.000 315.000 284.523 315.000 283.941 C 315.000 283.359 314.480 283.203 313.845 283.595 C 313.112 284.049 312.963 283.869 313.437 283.102 C 314.307 281.694 316.199 282.098 316.771 283.813 M 304.070 257.000 C 302.845 257.000 302.631 254.708 303.750 253.572 C 304.163 253.153 304.644 253.753 304.820 254.905 C 304.995 256.057 304.658 257.000 304.070 257.000 M 299.433 241.109 C 299.119 241.617 298.371 241.688 297.770 241.266 C 297.013 240.735 297.041 240.579 297.860 240.757 C 298.643 240.927 298.858 240.083 298.498 238.257 C 297.982 235.642 298.007 235.621 298.979 237.842 C 299.543 239.131 299.747 240.600 299.433 241.109 "/></g>
<g fill="#E87698FF" stroke="#E87698FF">
<path d="M 176.704 136.330 C 177.082 136.942 176.652 137.080 175.612 136.681 C 174.668 136.319 174.140 136.417 174.437 136.898 C 174.735 137.380 174.278 138.354 173.423 139.064 C 170.807 141.235 168.623 146.331 168.886 149.649 C 169.023 151.381 168.655 153.095 168.068 153.458 C 167.481 153.821 167.007 154.654 167.015 155.309 C 167.025 156.025 167.418 155.901 168.000 155.000 C 168.860 153.669 168.971 153.670 168.985 155.009 C 169.006 157.100 172.676 159.374 173.350 157.714 C 173.621 157.046 173.878 157.513 173.921 158.750 C 173.981 160.462 174.597 161.000 176.500 161.000 C 178.862 161.000 179.450 161.857 179.075 164.750 C 178.985 165.438 179.309 166.000 179.794 166.000 C 180.279 166.000 180.737 167.634 180.812 169.632 C 180.888 171.630 181.216 174.105 181.542 175.132 C 181.883 176.205 181.653 177.000 181.002 177.000 C 180.259 177.000 179.937 179.148 180.065 183.250 C 180.267 189.736 179.331 236.969 178.511 261.630 C 178.253 269.402 177.594 276.938 177.047 278.377 C 176.172 280.678 177.512 283.907 188.197 305.246 L 200.341 329.500 201.542 325.000 C 202.203 322.525 204.625 310.600 206.923 298.500 C 209.222 286.400 211.752 273.203 212.545 269.173 C 213.379 264.937 213.638 261.140 213.159 260.173 C 212.703 259.253 211.734 255.913 211.005 252.750 C 210.277 249.588 209.415 247.000 209.090 247.000 C 208.766 247.000 208.443 245.988 208.373 244.750 C 208.303 243.513 208.007 241.600 207.717 240.500 C 207.426 239.400 206.866 237.240 206.473 235.700 C 206.058 234.076 205.181 233.026 204.385 233.200 C 203.247 233.449 203.275 234.006 204.552 236.454 C 205.400 238.079 205.915 240.554 205.697 241.954 C 205.365 244.078 205.275 243.961 205.150 241.250 C 205.067 239.463 204.649 238.000 204.219 238.000 C 202.783 238.000 201.417 232.535 202.094 229.500 L 202.763 226.500 202.945 229.500 C 203.101 232.073 203.242 232.216 203.936 230.500 C 204.718 228.568 202.965 220.663 200.878 216.709 C 200.358 215.724 200.199 214.487 200.525 213.959 C 200.851 213.432 200.615 213.000 200.000 213.000 C 199.385 213.000 199.141 212.581 199.457 212.069 C 199.774 211.557 199.606 210.875 199.085 210.553 C 197.028 209.281 197.143 212.068 199.421 218.627 C 200.733 222.407 201.400 225.388 200.903 225.250 C 200.407 225.113 200.000 224.190 200.000 223.200 C 200.000 222.210 199.534 220.934 198.963 220.363 C 198.393 219.793 197.692 218.030 197.404 216.444 C 197.117 214.859 196.403 212.986 195.818 212.281 C 195.234 211.576 195.152 211.000 195.637 211.000 C 196.122 211.000 197.102 210.066 197.816 208.924 C 198.906 207.178 198.803 205.863 197.175 200.674 C 193.731 189.701 192.635 185.526 192.864 184.250 C 192.987 183.563 192.567 183.000 191.930 183.000 C 191.150 183.000 190.998 184.058 191.463 186.250 C 191.842 188.038 192.274 190.862 192.422 192.528 C 192.570 194.193 193.171 196.451 193.757 197.546 C 195.558 200.910 196.265 206.711 195.113 208.668 C 194.222 210.181 194.130 209.977 194.585 207.500 C 194.888 205.850 194.684 203.375 194.131 202.000 C 193.427 200.248 193.108 200.023 193.063 201.250 C 193.029 202.213 192.521 203.000 191.935 203.000 C 191.294 203.000 190.876 200.512 190.884 196.750 C 190.891 193.313 190.882 188.700 190.863 186.500 C 190.845 184.300 191.026 181.375 191.266 180.000 C 191.792 176.992 191.123 174.806 189.907 175.558 C 189.421 175.858 189.252 175.507 189.532 174.778 C 189.811 174.049 189.379 171.254 188.570 168.567 C 187.424 164.760 187.357 163.220 188.265 161.591 C 188.905 160.441 189.445 160.099 189.465 160.831 C 189.485 161.582 190.587 160.969 192.000 159.420 C 194.172 157.039 194.238 156.782 192.500 157.459 C 191.400 157.888 189.938 158.260 189.250 158.286 C 188.563 158.312 188.000 158.669 188.000 159.078 C 188.000 159.488 187.323 159.724 186.496 159.602 C 185.420 159.444 185.865 158.545 188.060 156.442 C 190.526 154.080 191.001 153.896 190.482 155.502 C 189.910 157.273 189.988 157.320 191.168 155.912 C 191.901 155.039 193.125 154.535 193.889 154.792 C 194.733 155.076 195.004 154.816 194.580 154.130 C 194.196 153.508 194.359 153.000 194.941 153.000 C 196.296 153.000 196.334 146.324 194.984 145.490 C 194.425 145.144 194.269 144.373 194.638 143.776 C 195.069 143.079 194.836 142.983 193.985 143.510 C 193.031 144.099 192.834 143.876 193.281 142.711 C 193.688 141.649 192.862 140.220 190.874 138.547 C 187.402 135.626 188.070 135.835 181.290 135.543 C 177.984 135.401 176.307 135.689 176.704 136.330 M 186.467 256.942 C 186.864 265.711 186.914 273.330 186.578 273.874 C 186.242 274.417 185.915 277.159 185.852 279.966 C 185.609 290.752 185.002 283.489 184.406 262.680 C 184.008 248.776 184.137 241.000 184.765 241.000 C 185.333 241.000 186.048 247.697 186.467 256.942 M 186.135 162.338 C 185.317 163.323 185.373 165.101 186.346 169.088 C 187.583 174.157 187.660 176.002 186.983 184.250 C 186.718 187.477 186.711 187.472 186.000 183.500 C 185.341 179.819 185.263 179.739 185.024 182.500 L 184.763 185.500 184.000 182.500 C 183.580 180.850 183.198 178.150 183.150 176.500 C 183.068 173.652 183.138 173.598 184.532 175.441 C 185.939 177.301 186.000 177.268 186.000 174.659 C 186.000 173.161 185.390 170.476 184.645 168.692 C 183.208 165.254 184.007 161.000 186.090 161.000 C 186.941 161.000 186.953 161.352 186.135 162.338 M 194.000 149.769 C 194.000 150.680 193.334 150.923 192.000 150.500 C 190.859 150.138 190.000 150.320 190.000 150.925 C 190.000 151.508 189.017 153.116 187.815 154.498 C 185.806 156.808 185.618 156.853 185.485 155.052 C 185.406 153.974 185.667 153.294 186.066 153.541 C 186.464 153.787 187.057 153.293 187.384 152.442 C 187.724 151.557 187.555 151.157 186.989 151.507 C 186.445 151.843 186.000 151.615 186.000 151.000 C 186.000 150.385 185.550 150.160 185.000 150.500 C 184.450 150.840 184.000 150.679 184.000 150.142 C 184.000 148.858 185.242 148.510 190.031 148.451 C 192.743 148.418 194.000 148.835 194.000 149.769 M 191.804 266.212 C 191.258 262.738 191.190 259.158 191.653 258.212 C 192.186 257.123 192.545 259.411 192.641 264.500 L 192.792 272.500 191.804 266.212 M 193.472 211.456 C 193.445 214.456 193.102 217.231 192.711 217.622 C 192.320 218.013 192.000 215.558 192.000 212.167 C 192.000 208.775 192.342 206.000 192.761 206.000 C 193.179 206.000 193.499 208.455 193.472 211.456 M 176.771 147.162 C 174.707 148.473 173.000 148.118 173.000 146.378 C 173.000 144.981 173.232 144.946 174.663 146.128 C 176.088 147.304 176.254 147.286 175.825 146.000 C 175.550 145.175 174.239 144.483 172.912 144.463 C 170.627 144.428 170.603 144.367 172.462 143.305 C 174.066 142.388 174.754 142.564 176.234 144.269 C 177.640 145.891 177.760 146.535 176.771 147.162 M 203.000 256.614 C 203.000 256.826 202.352 257.000 201.559 257.000 C 199.558 257.000 198.749 255.365 199.532 252.900 C 200.162 250.915 200.259 250.945 201.596 253.523 C 202.368 255.011 203.000 256.402 203.000 256.614 M 197.000 237.500 C 197.000 239.425 196.550 241.000 196.000 241.000 C 195.450 241.000 195.000 239.425 195.000 237.500 C 195.000 235.575 195.450 234.000 196.000 234.000 C 196.550 234.000 197.000 235.575 197.000 237.500 M 184.400 141.765 C 183.795 142.169 183.120 143.048 182.900 143.718 C 182.626 144.553 182.029 144.632 181.000 143.968 C 179.667 143.108 179.667 142.891 181.000 142.015 C 181.825 141.474 183.175 141.031 184.000 141.031 C 184.970 141.031 185.112 141.290 184.400 141.765 M 187.430 140.113 C 187.129 140.601 187.610 141.000 188.500 141.000 C 189.390 141.000 189.840 141.450 189.500 142.000 C 188.392 143.792 187.217 143.060 186.111 139.888 C 185.169 137.188 185.221 136.939 186.502 138.002 C 187.314 138.675 187.731 139.626 187.430 140.113 M 188.086 189.895 C 188.752 188.843 188.973 189.046 188.985 190.719 C 188.995 192.283 188.558 192.767 187.500 192.362 C 186.675 192.045 186.052 190.822 186.116 189.643 C 186.219 187.749 186.288 187.720 186.717 189.395 C 187.107 190.918 187.376 191.016 188.086 189.895 M 190.965 294.450 C 191.029 296.167 189.253 293.608 188.571 291.000 L 187.917 288.500 189.423 291.000 C 190.251 292.375 190.945 293.928 190.965 294.450 M 183.000 139.000 C 183.000 139.550 182.073 140.000 180.941 140.000 C 179.809 140.000 179.160 139.550 179.500 139.000 C 179.840 138.450 180.766 138.000 181.559 138.000 C 182.352 138.000 183.000 138.450 183.000 139.000 M 176.992 138.750 C 176.988 139.163 175.808 140.046 174.370 140.713 C 171.814 141.900 171.796 141.883 173.533 139.963 C 175.336 137.971 177.006 137.385 176.992 138.750 "/></g>
<g fill="#E87698FF" stroke="#E87698FF">
<path d="M 402.741 211.405 C 397.045 212.628 394.955 214.087 391.631 219.160 C 389.632 222.210 389.742 228.687 391.806 229.479 C 392.586 229.779 392.945 230.701 392.615 231.560 C 392.289 232.409 392.421 232.858 392.907 232.558 C 394.233 231.738 395.187 235.070 394.026 236.469 C 393.471 237.137 393.314 237.981 393.677 238.344 C 394.593 239.260 392.041 243.791 388.750 247.089 C 387.238 248.606 386.000 250.556 386.000 251.423 C 386.000 252.290 385.580 253.000 385.067 253.000 C 384.554 253.000 383.862 253.858 383.529 254.907 C 383.197 255.956 381.395 258.746 379.527 261.108 C 377.658 263.469 376.302 265.680 376.514 266.022 C 376.725 266.364 376.001 267.411 374.906 268.348 C 373.811 269.286 373.153 270.439 373.445 270.911 C 373.736 271.382 372.661 272.312 371.055 272.977 C 369.028 273.817 368.319 274.668 368.737 275.758 C 369.135 276.795 368.943 277.083 368.170 276.605 C 367.526 276.207 366.978 276.021 366.951 276.191 C 366.891 276.570 365.528 297.361 363.980 321.528 C 362.236 348.732 361.437 348.187 375.417 329.336 C 387.291 313.326 387.341 313.235 389.118 304.458 C 391.085 294.741 390.479 290.566 388.324 298.988 C 387.576 301.908 387.161 304.494 387.401 304.734 C 387.640 304.974 387.230 306.819 386.489 308.835 C 385.747 310.851 385.109 311.938 385.070 311.250 C 385.032 310.563 384.325 310.000 383.500 310.000 C 382.675 310.000 382.000 309.502 382.000 308.893 C 382.000 308.284 382.668 308.042 383.485 308.356 C 384.346 308.686 385.392 308.136 385.977 307.043 C 386.703 305.687 386.637 305.045 385.742 304.743 C 384.769 304.416 384.761 304.008 385.708 302.861 C 386.373 302.055 386.671 300.294 386.371 298.948 C 385.942 297.017 386.053 296.817 386.898 298.000 C 388.006 299.552 388.217 298.284 388.421 288.834 C 388.464 286.818 388.838 284.831 389.250 284.418 C 390.025 283.642 390.347 286.457 390.031 291.250 C 389.928 292.803 390.364 294.000 391.033 294.000 C 391.786 294.000 391.996 293.119 391.610 291.583 C 391.276 290.253 391.365 289.016 391.806 288.833 C 392.853 288.399 399.085 259.665 399.406 253.791 C 399.547 251.227 397.581 251.540 396.957 254.181 C 396.589 255.742 396.171 256.085 395.654 255.249 C 395.227 254.558 395.684 252.932 396.697 251.540 C 398.687 248.806 399.932 248.337 400.128 250.250 C 400.198 250.938 400.394 250.600 400.563 249.500 C 401.800 241.443 402.716 238.706 403.924 239.453 C 404.440 239.772 405.149 239.568 405.500 239.000 C 405.851 238.432 406.556 238.226 407.067 238.542 C 408.276 239.289 412.500 236.326 412.500 234.731 C 412.500 234.054 413.153 233.500 413.950 233.500 C 415.752 233.500 418.563 224.910 417.591 222.377 C 416.998 220.831 416.752 220.778 415.962 222.028 C 415.450 222.838 415.024 224.572 415.015 225.882 C 415.007 227.192 414.063 229.780 412.918 231.632 C 411.774 233.484 411.211 235.034 411.668 235.077 C 412.126 235.119 411.713 235.304 410.750 235.488 C 409.788 235.672 409.000 235.413 409.000 234.912 C 409.000 234.410 409.477 234.000 410.059 234.000 C 410.641 234.000 410.838 233.547 410.496 232.993 C 410.153 232.439 410.565 231.721 411.409 231.396 C 412.254 231.072 413.233 229.163 413.585 227.153 C 413.937 225.144 414.849 222.503 415.612 221.285 C 417.308 218.579 417.384 217.645 415.830 218.605 C 415.065 219.078 414.863 218.801 415.245 217.804 C 415.607 216.861 414.560 215.082 412.501 213.140 C 410.670 211.413 409.021 210.038 408.836 210.084 C 408.651 210.130 405.909 210.724 402.741 211.405 M 405.333 236.136 C 408.065 236.254 408.156 236.335 406.000 236.727 C 403.041 237.266 400.000 239.763 400.000 241.655 C 400.000 242.395 399.612 243.000 399.139 243.000 C 398.665 243.000 398.450 244.238 398.660 245.750 C 399.019 248.327 398.980 248.358 398.053 246.249 C 396.923 243.678 397.556 241.444 400.151 238.849 C 401.143 237.857 401.814 236.473 401.641 235.773 C 401.469 235.073 401.517 234.838 401.747 235.250 C 401.978 235.663 403.592 236.061 405.333 236.136 M 405.240 230.687 C 402.404 231.575 401.349 231.572 400.778 230.675 C 399.482 228.638 399.922 228.118 402.542 228.593 C 403.940 228.847 406.078 228.362 407.292 227.515 C 409.323 226.099 409.478 226.118 409.227 227.750 C 409.064 228.811 407.460 229.992 405.240 230.687 M 374.070 289.000 C 374.581 289.000 375.046 288.438 375.101 287.750 C 375.157 287.063 375.357 288.188 375.545 290.250 C 375.733 292.313 375.495 294.000 375.017 294.000 C 374.538 294.000 373.941 294.788 373.689 295.750 C 373.438 296.713 373.180 296.094 373.116 294.375 C 373.052 292.656 372.836 289.956 372.635 288.375 C 372.434 286.794 372.465 286.288 372.704 287.250 C 372.944 288.213 373.558 289.000 374.070 289.000 M 395.529 266.113 C 395.373 268.203 394.965 269.632 394.623 269.289 C 394.280 268.947 393.920 269.642 393.821 270.833 C 393.579 273.778 393.587 270.378 393.837 264.250 C 393.968 261.030 394.317 259.953 394.921 260.907 C 395.411 261.681 395.685 264.024 395.529 266.113 M 392.362 258.276 C 392.669 259.451 392.683 260.651 392.392 260.941 C 391.672 261.661 388.040 256.744 388.610 255.822 C 389.414 254.521 391.786 256.073 392.362 258.276 M 391.724 283.000 C 391.524 284.929 391.313 285.121 390.798 283.840 C 390.432 282.927 390.665 280.510 391.316 278.469 C 392.548 274.608 392.569 274.845 391.724 283.000 M 382.985 267.750 C 382.957 269.119 381.118 271.452 380.531 270.864 C 379.743 270.076 380.998 267.000 382.107 267.000 C 382.598 267.000 382.993 267.338 382.985 267.750 M 374.388 324.531 C 373.475 325.923 372.534 326.867 372.295 326.629 C 371.702 326.035 374.290 322.000 375.264 322.000 C 375.694 322.000 375.300 323.139 374.388 324.531 M 370.930 322.750 C 370.891 323.163 370.473 324.400 370.000 325.500 C 369.238 327.272 369.133 327.187 369.070 324.750 C 369.032 323.238 369.450 322.000 370.000 322.000 C 370.550 322.000 370.968 322.338 370.930 322.750 "/></g>
<g fill="#E87698FF" stroke="#E87698FF">
<path d="M 98.000 216.190 C 95.525 217.399 93.220 218.798 92.877 219.297 C 92.511 219.831 91.440 219.771 90.280 219.150 C 88.254 218.066 86.000 219.246 86.000 221.391 C 86.000 221.936 86.675 221.509 87.500 220.441 C 88.922 218.602 88.953 218.631 88.096 221.000 C 87.599 222.375 86.726 223.397 86.157 223.270 C 85.588 223.144 84.833 223.950 84.480 225.062 C 83.683 227.574 84.887 235.188 85.975 234.515 C 87.321 233.683 89.268 236.869 88.712 238.994 C 88.424 240.096 88.665 241.293 89.248 241.654 C 89.872 242.039 90.015 241.833 89.595 241.155 C 88.709 239.720 90.740 239.665 94.621 241.018 C 97.991 242.193 99.718 244.564 100.520 249.115 C 100.832 250.884 101.286 252.655 101.530 253.049 C 101.774 253.444 102.250 255.507 102.587 257.633 C 102.924 259.760 103.640 262.323 104.177 263.328 C 104.714 264.334 104.937 265.722 104.672 266.413 C 104.407 267.104 105.495 274.156 107.090 282.085 C 108.686 290.013 109.993 296.913 109.995 297.417 C 109.998 297.921 110.260 298.073 110.579 297.755 C 110.897 297.436 111.266 299.845 111.400 303.108 C 111.534 306.396 111.283 308.473 110.836 307.770 C 110.331 306.973 110.025 306.916 110.015 307.617 C 109.995 309.087 120.499 322.247 121.556 322.077 C 122.006 322.004 122.479 322.655 122.606 323.523 C 122.865 325.285 131.030 334.499 132.333 334.500 C 132.792 334.500 132.829 334.838 132.417 335.250 C 132.004 335.663 132.218 336.000 132.892 336.000 C 133.566 336.000 133.882 336.381 133.595 336.847 C 133.307 337.313 134.405 338.972 136.036 340.534 L 139.000 343.374 138.982 340.937 C 138.972 339.597 138.533 334.450 138.005 329.500 C 137.477 324.550 136.326 311.962 135.448 301.527 C 133.897 283.115 132.443 277.000 129.618 277.000 C 129.095 277.000 128.965 276.702 129.329 276.338 C 129.953 275.714 125.633 269.207 123.717 267.888 C 123.229 267.552 122.901 266.888 122.990 266.413 C 123.078 265.938 122.647 265.382 122.031 265.177 C 121.292 264.931 121.119 265.771 121.520 267.652 C 122.091 270.328 121.983 270.273 119.728 266.752 C 118.409 264.691 116.958 263.341 116.505 263.752 C 116.052 264.164 115.978 263.675 116.341 262.666 C 116.780 261.449 116.588 260.971 115.770 261.243 C 114.984 261.505 114.462 260.451 114.326 258.327 C 114.209 256.497 114.565 255.000 115.116 255.000 C 115.667 255.000 115.861 255.415 115.547 255.923 C 115.109 256.633 117.549 261.989 119.614 264.850 C 119.753 265.043 120.343 264.906 120.924 264.547 C 121.614 264.120 121.340 262.958 120.134 261.197 C 119.118 259.714 117.527 257.247 116.598 255.716 C 115.670 254.186 114.368 253.001 113.705 253.085 C 111.122 253.411 110.000 252.940 110.000 251.532 C 110.000 250.725 108.763 249.393 107.250 248.572 C 105.738 247.751 104.924 247.062 105.441 247.040 C 105.959 247.018 105.623 246.438 104.695 245.750 C 103.216 244.655 103.161 244.005 104.251 240.500 C 105.319 237.065 105.454 236.933 105.209 239.561 C 104.921 242.644 107.200 248.466 108.275 247.392 C 108.593 247.074 109.633 248.318 110.588 250.157 C 112.127 253.121 112.343 253.245 112.495 251.250 C 112.589 250.013 112.291 249.000 111.833 249.000 C 111.375 249.000 111.000 248.351 111.000 247.557 C 111.000 246.763 110.000 245.413 108.777 244.557 C 107.555 243.701 106.935 243.000 107.400 243.000 C 107.865 243.000 107.741 242.393 107.126 241.652 C 106.270 240.621 106.502 239.856 108.109 238.402 C 109.472 237.168 109.734 236.499 108.855 236.497 C 108.110 236.496 107.495 235.712 107.489 234.756 C 107.484 233.800 107.208 233.052 106.878 233.094 C 106.547 233.136 106.608 232.634 107.013 231.979 C 107.542 231.123 107.943 231.099 108.434 231.893 C 108.810 232.502 108.840 233.450 108.500 234.000 C 108.160 234.550 108.541 235.000 109.347 235.000 C 110.320 235.000 110.637 234.328 110.290 233.000 C 110.002 231.900 110.157 230.999 110.633 230.998 C 111.110 230.997 111.594 229.647 111.710 227.998 C 111.825 226.349 111.461 225.000 110.901 225.000 C 110.340 225.000 110.143 224.577 110.463 224.060 C 111.194 222.877 107.563 216.770 106.663 217.670 C 106.298 218.035 106.000 217.733 106.000 217.000 C 106.000 216.267 105.707 215.960 105.349 216.318 C 104.991 216.676 104.203 216.299 103.599 215.480 C 102.641 214.182 101.924 214.273 98.000 216.190 M 106.957 220.448 C 107.668 221.305 108.250 223.130 108.250 224.503 C 108.250 225.876 108.670 227.000 109.184 227.000 C 109.698 227.000 109.810 227.498 109.434 228.107 C 108.955 228.881 108.504 228.815 107.929 227.886 C 106.679 225.863 105.757 227.482 105.641 231.904 C 105.561 234.956 105.082 236.007 103.595 236.396 C 100.380 237.236 99.845 236.026 102.058 232.919 C 103.460 230.950 104.051 228.810 103.847 226.440 C 103.652 224.182 104.057 222.583 104.967 222.020 C 106.130 221.301 105.942 220.747 103.947 219.013 C 101.913 217.246 101.852 217.056 103.582 217.889 C 104.727 218.440 106.246 219.592 106.957 220.448 M 120.510 280.016 C 120.856 280.575 121.627 280.731 122.224 280.362 C 122.831 279.986 123.024 280.151 122.663 280.736 C 122.308 281.311 123.195 282.553 124.634 283.496 C 126.791 284.909 127.403 284.972 128.110 283.855 C 128.680 282.957 128.951 283.680 128.914 286.000 C 128.874 288.560 128.662 288.997 128.124 287.627 C 127.452 285.918 127.250 285.893 125.801 287.342 C 124.352 288.791 124.170 288.757 123.699 286.958 C 123.378 285.730 121.997 284.749 120.037 284.357 C 117.840 283.918 117.058 283.292 117.445 282.282 C 117.750 281.487 118.000 280.423 118.000 279.918 C 118.000 278.682 119.727 278.749 120.510 280.016 M 115.128 285.750 C 115.198 286.163 115.391 287.400 115.557 288.500 C 115.723 289.600 116.291 292.525 116.820 295.000 C 117.776 299.475 117.782 299.481 117.976 296.000 C 118.161 292.689 118.214 292.640 118.957 295.090 C 119.454 296.732 119.266 298.563 118.443 300.090 C 117.017 302.736 117.140 302.936 115.011 294.500 C 112.832 285.868 112.729 285.000 113.883 285.000 C 114.498 285.000 115.057 285.338 115.128 285.750 M 92.000 226.066 C 92.000 228.362 89.916 230.905 88.485 230.356 C 86.970 229.774 86.463 226.870 87.667 225.667 C 88.735 224.598 92.000 224.899 92.000 226.066 M 99.000 227.441 C 99.000 228.784 98.519 230.179 97.932 230.542 C 97.344 230.905 97.105 231.832 97.400 232.601 C 97.696 233.371 97.354 234.000 96.642 234.000 C 95.435 234.000 95.383 229.928 96.543 226.250 C 97.235 224.055 99.000 224.910 99.000 227.441 M 126.355 272.312 C 126.768 271.899 126.826 272.289 126.485 273.179 C 126.143 274.069 126.344 275.095 126.932 275.458 C 127.519 275.821 127.964 277.329 127.921 278.809 C 127.878 280.289 127.612 280.825 127.330 280.000 C 127.049 279.175 125.959 276.592 124.909 274.261 C 122.764 269.497 122.402 267.295 124.337 270.781 C 125.034 272.036 125.942 272.725 126.355 272.312 M 98.823 220.667 C 98.645 221.584 97.875 222.542 97.111 222.797 C 96.275 223.075 95.997 222.814 96.413 222.141 C 96.853 221.429 96.540 221.239 95.552 221.618 C 94.698 221.946 94.000 221.753 94.000 221.190 C 94.000 220.627 94.563 219.940 95.250 219.662 C 97.759 218.650 99.139 219.038 98.823 220.667 M 132.066 321.000 C 130.851 321.000 130.617 317.723 131.750 316.571 C 132.163 316.151 132.642 316.976 132.816 318.404 C 132.990 319.832 132.653 321.000 132.066 321.000 M 131.444 297.444 C 131.068 299.451 130.560 300.893 130.315 300.649 C 130.071 300.404 130.179 298.562 130.556 296.556 C 130.932 294.549 131.440 293.107 131.685 293.351 C 131.929 293.596 131.821 295.438 131.444 297.444 M 119.000 274.583 C 119.000 276.349 116.847 276.042 116.229 274.188 C 116.011 273.534 116.546 273.000 117.417 273.000 C 118.288 273.000 119.000 273.713 119.000 274.583 M 112.914 275.000 C 112.878 275.989 112.567 275.819 112.000 274.500 C 111.179 272.589 111.137 272.585 111.070 274.417 C 111.032 275.471 110.734 276.067 110.409 275.742 C 110.083 275.417 110.133 274.157 110.518 272.943 C 111.066 271.218 111.410 271.038 112.094 272.118 C 112.575 272.878 112.945 274.175 112.914 275.000 M 135.117 330.766 L 135.372 333.500 134.186 330.685 C 132.756 327.292 132.710 326.703 133.931 327.457 C 134.442 327.773 134.976 329.262 135.117 330.766 M 97.500 236.000 C 98.287 237.273 95.970 237.273 94.000 236.000 C 92.781 235.212 92.910 235.028 94.691 235.015 C 95.896 235.007 97.160 235.450 97.500 236.000 "/></g>
<g fill="#FDD784FF" stroke="#FDD784FF">
<path d="M 244.298 330.649 C 241.516 331.252 236.000 337.452 236.000 339.976 C 236.000 341.024 235.550 342.160 235.000 342.500 C 233.505 343.424 233.794 348.763 235.538 352.439 C 238.187 358.022 242.565 360.503 249.727 360.481 C 255.738 360.463 256.110 360.309 260.477 356.023 C 264.433 352.140 265.000 351.052 265.000 347.339 C 265.000 342.964 263.320 338.000 261.839 338.000 C 261.378 338.000 261.000 337.356 261.000 336.568 C 261.000 332.784 250.923 329.213 244.298 330.649 M 257.535 336.615 C 260.362 338.467 260.790 341.760 258.327 342.705 C 257.178 343.146 255.780 342.301 253.868 340.011 C 249.867 335.218 252.161 333.094 257.535 336.615 M 261.000 347.500 C 261.000 348.325 260.352 349.000 259.559 349.000 C 257.888 349.000 256.761 347.573 257.694 346.639 C 258.889 345.444 261.000 345.994 261.000 347.500 "/></g>
<g fill="#FDD784FF" stroke="#FDD784FF">
<path d="M 320.000 345.229 C 316.408 347.095 313.900 352.625 314.227 357.958 C 314.469 361.903 314.961 362.734 318.500 365.175 C 323.662 368.735 326.739 368.696 331.829 365.009 C 336.416 361.686 337.562 358.811 336.519 353.247 L 335.817 349.508 333.998 351.754 C 331.673 354.626 330.612 354.583 328.615 351.535 C 326.559 348.397 326.567 348.346 329.233 347.649 C 330.817 347.235 331.155 346.755 330.396 345.996 C 328.666 344.266 322.702 343.826 320.000 345.229 "/></g>
<g fill="#FDD784FF" stroke="#FDD784FF">
<path d="M 173.080 345.265 C 168.468 347.619 164.656 357.902 167.244 361.006 C 167.935 361.835 169.997 363.747 171.827 365.256 C 176.500 369.111 180.000 368.843 184.973 364.250 C 189.316 360.238 190.508 356.406 188.783 352.000 L 187.804 349.500 186.934 351.750 C 185.861 354.526 182.450 354.709 181.035 352.066 C 179.534 349.262 179.748 348.299 182.000 347.710 C 184.671 347.012 184.538 345.378 181.750 344.630 C 178.330 343.714 175.748 343.903 173.080 345.265 "/></g>
<g fill="#E87698FF" stroke="#E87698FF">
<path d="M 50.568 267.890 C 49.684 269.320 55.439 274.868 59.619 276.614 C 61.443 277.376 64.698 278.000 66.851 278.000 C 69.712 278.000 70.909 278.471 71.295 279.750 C 71.744 281.240 79.169 299.306 81.877 305.500 C 83.376 308.929 85.066 313.057 90.678 327.000 C 93.667 334.425 96.762 341.918 97.556 343.651 C 98.350 345.384 99.000 347.058 99.000 347.371 C 99.000 347.685 100.087 350.317 101.415 353.220 C 102.743 356.124 104.949 361.425 106.318 365.000 C 107.687 368.575 109.605 373.300 110.580 375.500 C 111.555 377.700 112.459 380.063 112.589 380.752 C 112.718 381.441 113.706 383.916 114.785 386.252 C 115.864 388.588 118.036 393.554 119.611 397.286 C 121.187 401.018 122.605 403.685 122.762 403.213 C 123.010 402.471 116.447 385.392 112.498 376.500 C 111.765 374.850 108.619 367.200 105.508 359.500 C 102.396 351.800 99.405 344.575 98.860 343.445 C 98.316 342.314 97.953 340.964 98.054 340.445 C 98.154 339.925 98.172 339.725 98.092 340.000 C 97.876 340.747 91.001 324.841 90.996 323.583 C 90.994 322.987 89.878 320.305 88.516 317.621 C 87.155 314.938 86.283 312.350 86.580 311.871 C 86.876 311.392 86.692 311.000 86.170 311.000 C 85.649 311.000 84.927 309.425 84.566 307.500 C 84.205 305.575 83.516 304.000 83.034 304.000 C 82.553 304.000 81.846 302.538 81.463 300.750 C 81.080 298.963 79.527 294.985 78.014 291.910 C 76.500 288.836 74.729 284.710 74.079 282.740 C 72.545 278.090 71.511 277.343 65.500 276.543 C 59.733 275.776 55.593 273.454 53.033 269.550 C 51.947 267.895 50.971 267.238 50.568 267.890 "/></g>
<g fill="#E87698FF" stroke="#E87698FF">
<path d="M 241.789 118.500 C 241.398 119.600 240.826 121.850 240.517 123.500 C 240.208 125.150 239.273 130.100 238.440 134.500 C 237.607 138.900 236.499 144.975 235.978 148.000 C 235.457 151.025 234.563 155.750 233.992 158.500 C 233.421 161.250 232.733 164.736 232.463 166.248 C 232.193 167.759 231.338 171.809 230.563 175.248 C 229.788 178.686 228.870 183.719 228.524 186.431 C 228.178 189.142 227.717 191.649 227.500 192.000 C 227.283 192.351 226.827 194.858 226.487 197.569 C 226.146 200.281 225.654 203.252 225.392 204.170 C 224.817 206.187 225.206 204.257 219.595 232.922 C 217.073 245.804 215.192 256.525 215.414 256.747 C 215.888 257.221 216.271 255.883 218.346 246.500 C 220.493 236.795 230.007 187.238 231.592 177.500 C 232.309 173.100 233.587 166.575 234.433 163.000 C 235.279 159.425 236.652 152.225 237.484 147.000 C 238.316 141.775 239.411 136.375 239.916 135.000 C 240.791 132.621 242.049 124.374 242.357 119.000 C 242.479 116.860 242.398 116.788 241.789 118.500 "/></g>
<g fill="#CD5E7EFF" stroke="#CD5E7EFF">
<path d="M 312.627 161.854 C 311.762 163.194 309.880 169.964 306.607 183.500 C 305.676 187.350 304.258 192.525 303.456 195.000 C 302.654 197.475 300.695 204.450 299.103 210.500 C 297.511 216.550 294.993 225.962 293.508 231.415 C 292.023 236.868 290.619 242.369 290.389 243.639 C 290.159 244.909 289.527 247.114 288.985 248.539 C 288.443 249.964 288.037 252.113 288.082 253.315 C 288.207 256.675 290.891 249.955 292.156 243.116 C 292.726 240.032 293.584 236.778 294.063 235.883 C 294.542 234.988 295.581 231.386 296.372 227.878 C 297.972 220.782 302.719 203.330 303.682 201.000 C 304.313 199.474 304.407 199.070 305.510 193.127 C 305.855 191.272 306.546 189.022 307.045 188.127 C 308.238 185.992 310.420 177.763 310.113 176.560 C 309.981 176.043 310.551 173.793 311.379 171.560 C 313.087 166.955 314.020 159.693 312.627 161.854 "/></g>
<g fill="#CD5E7EFF" stroke="#CD5E7EFF">
<path d="M 179.000 173.794 C 179.000 178.145 178.786 187.734 178.524 195.103 C 178.262 202.471 177.815 217.500 177.530 228.500 C 177.246 239.500 176.800 255.700 176.540 264.500 C 176.212 275.585 176.358 279.425 177.014 277.000 C 177.536 275.075 178.187 262.700 178.462 249.500 C 179.192 214.518 180.049 183.608 180.533 174.796 C 180.777 170.364 180.541 166.834 179.978 166.487 C 179.372 166.112 179.000 168.890 179.000 173.794 "/></g>
<g fill="#CD5E7EFF" stroke="#CD5E7EFF">
<path d="M 129.974 420.952 C 130.594 422.109 131.481 422.821 131.945 422.534 C 132.410 422.247 133.035 422.648 133.333 423.426 C 134.317 425.990 158.284 431.959 174.000 433.555 C 177.025 433.862 183.325 434.534 188.000 435.049 C 192.675 435.563 197.625 435.941 199.000 435.889 C 203.491 435.720 195.432 434.146 181.500 432.470 C 167.653 430.804 155.039 428.695 148.500 426.953 C 146.300 426.366 142.707 425.436 140.515 424.885 C 138.323 424.335 135.848 423.293 135.015 422.571 C 134.182 421.848 132.453 420.715 131.174 420.053 C 128.994 418.924 128.919 418.980 129.974 420.952 "/></g>
<g fill="#FF9AB8FF" stroke="#FF9AB8FF">
<path d="M 318.595 200.979 C 318.114 202.342 317.845 208.417 317.998 214.479 C 318.151 220.540 318.326 228.988 318.388 233.251 C 318.450 237.514 318.838 241.001 319.250 241.001 C 319.663 241.000 320.000 243.250 320.000 246.000 C 320.000 248.889 319.548 251.000 318.929 251.000 C 317.335 251.000 315.000 253.633 315.000 255.429 C 315.000 256.438 315.894 257.000 317.500 257.000 C 319.161 257.000 320.047 257.588 320.141 258.750 C 320.218 259.713 320.556 258.250 320.891 255.500 C 321.791 248.109 319.678 197.911 318.595 200.979 "/></g>
<g fill="#CD5E7EFF" stroke="#CD5E7EFF">
<path d="M 86.652 218.220 C 83.011 222.268 81.912 225.220 82.458 229.485 C 83.367 236.580 87.827 241.604 94.416 242.951 C 97.281 243.537 97.442 243.885 99.542 253.980 C 100.735 259.713 102.245 264.582 102.897 264.799 C 103.761 265.087 103.787 265.551 102.993 266.508 C 102.331 267.306 102.274 268.051 102.847 268.405 C 104.412 269.372 105.078 266.009 103.784 263.678 C 103.119 262.480 102.683 261.127 102.814 260.670 C 103.163 259.459 100.061 246.886 98.760 244.238 C 98.091 242.876 96.026 241.497 93.574 240.774 C 88.929 239.404 87.000 237.860 87.000 235.512 C 87.000 234.616 86.579 234.142 86.064 234.460 C 85.549 234.778 84.835 233.084 84.477 230.694 C 83.867 226.626 85.211 222.097 88.755 216.277 C 89.165 215.604 88.218 216.478 86.652 218.220 "/></g>
<g fill="#FF9AB8FF" stroke="#FF9AB8FF">
<path d="M 322.079 133.724 C 322.036 134.398 320.682 135.630 319.071 136.463 C 316.209 137.943 315.832 138.596 314.574 144.250 C 314.125 146.269 314.348 147.000 315.415 147.000 C 316.256 147.000 317.000 145.843 317.184 144.250 C 317.433 142.080 318.027 141.492 320.000 141.464 C 322.804 141.423 325.000 143.117 325.000 145.322 C 325.000 146.908 322.943 148.000 319.953 148.000 C 318.918 148.000 317.531 149.013 316.871 150.250 C 315.795 152.270 315.838 152.363 317.292 151.164 C 319.185 149.603 320.986 150.396 321.032 152.809 C 321.076 155.158 325.119 149.640 326.735 145.026 C 328.278 140.619 328.280 140.679 326.626 141.313 C 325.840 141.615 324.706 140.820 323.976 139.454 C 323.273 138.142 322.316 137.304 321.849 137.593 C 321.382 137.882 321.000 137.668 321.000 137.118 C 321.000 136.568 321.474 135.825 322.053 135.467 C 322.632 135.110 322.892 134.295 322.632 133.658 C 322.291 132.825 322.136 132.844 322.079 133.724 "/></g>
<g fill="#E87698FF" stroke="#E87698FF">
<path d="M 351.464 219.250 C 350.620 222.077 345.101 234.662 339.382 246.799 C 336.972 251.914 335.000 256.329 335.000 256.611 C 335.000 256.893 333.937 259.458 332.637 262.312 C 326.831 275.057 326.000 277.052 326.003 278.239 C 326.007 279.831 332.534 266.943 334.049 262.351 C 335.906 256.725 340.630 247.963 341.394 248.727 C 341.786 249.119 341.780 248.591 341.383 247.555 C 340.841 246.144 340.992 245.877 341.985 246.490 C 342.795 246.991 343.068 246.919 342.689 246.306 C 341.916 245.055 345.656 234.835 350.405 225.224 C 354.343 217.252 354.425 217.000 353.067 217.000 C 352.554 217.000 351.833 218.013 351.464 219.250 "/></g>
<g fill="#E87698FF" stroke="#E87698FF">
<path d="M 361.040 164.670 C 348.662 170.061 345.831 188.790 356.089 197.421 C 360.477 201.114 361.072 199.771 356.821 195.770 C 350.198 189.535 349.318 181.432 354.336 172.871 C 357.665 167.190 362.951 164.509 370.078 164.887 C 373.081 165.046 375.000 164.730 375.000 164.074 C 375.000 162.481 365.097 162.903 361.040 164.670 "/></g>
<g fill="#FF9AB8FF" stroke="#FF9AB8FF">
<path d="M 184.406 262.680 C 185.002 283.489 185.609 290.752 185.852 279.966 C 185.915 277.159 186.242 274.417 186.578 273.874 C 187.574 272.262 185.850 241.000 184.765 241.000 C 184.137 241.000 184.008 248.776 184.406 262.680 "/></g>
<g fill="#FF9AB8FF" stroke="#FF9AB8FF">
<path d="M 312.486 430.825 C 312.853 431.782 312.523 432.031 311.439 431.615 C 310.568 431.281 308.939 431.497 307.820 432.096 C 306.351 432.882 305.481 432.881 304.693 432.093 C 304.092 431.492 300.465 431.000 296.633 431.000 C 289.317 431.000 287.895 431.728 294.362 432.164 C 297.723 432.390 297.950 432.564 296.383 433.709 C 294.735 434.914 294.732 435.000 296.340 435.000 C 297.288 435.000 298.326 434.314 298.648 433.474 C 299.064 432.391 299.591 432.246 300.469 432.974 C 301.759 434.045 320.001 433.229 319.999 432.100 C 319.999 431.770 321.461 431.482 323.249 431.459 C 325.362 431.433 325.558 431.346 323.809 431.209 C 322.329 431.094 320.855 430.574 320.533 430.054 C 320.212 429.534 318.149 429.180 315.949 429.267 C 312.975 429.386 312.087 429.785 312.486 430.825 "/></g>
<g fill="#CD5E7EFF" stroke="#CD5E7EFF">
<path d="M 399.000 210.150 C 395.159 211.159 388.646 217.636 389.427 219.669 C 389.694 220.366 389.446 221.224 388.876 221.577 C 387.228 222.595 388.494 229.448 391.107 233.651 C 393.328 237.224 393.506 237.321 393.580 235.000 C 393.624 233.625 393.300 231.825 392.860 231.000 C 392.421 230.175 392.040 229.950 392.015 230.500 C 391.898 233.070 390.029 228.102 390.015 225.184 C 389.998 221.490 391.241 218.607 394.299 215.250 C 395.426 214.013 395.933 212.963 395.424 212.917 C 393.991 212.787 398.977 212.042 404.301 211.589 C 406.941 211.364 408.741 210.977 408.301 210.729 C 406.242 209.566 402.182 209.313 399.000 210.150 "/></g>
<g fill="#CD5E7EFF" stroke="#CD5E7EFF">
<path d="M 390.706 240.753 C 389.719 242.264 384.499 250.250 379.106 258.500 C 371.298 270.443 369.778 273.326 371.645 272.647 C 372.935 272.178 373.699 271.322 373.343 270.745 C 372.986 270.169 373.524 269.090 374.538 268.348 C 375.553 267.607 376.033 267.000 375.607 267.000 C 375.181 267.000 376.146 265.313 377.753 263.250 C 379.359 261.188 381.519 258.038 382.552 256.250 C 383.586 254.463 384.784 253.000 385.216 253.000 C 385.647 253.000 386.000 252.425 386.000 251.723 C 386.000 251.021 387.800 248.051 390.000 245.123 C 392.200 242.195 394.000 239.394 394.000 238.900 C 394.000 237.174 392.487 238.026 390.706 240.753 "/></g>
<g fill="#FF9AB8FF" stroke="#FF9AB8FF">
<path d="M 404.926 212.877 C 406.260 213.250 407.499 213.996 407.678 214.535 C 408.193 216.080 403.843 218.366 400.000 218.570 C 398.075 218.672 396.254 218.810 395.954 218.878 C 395.653 218.945 395.438 220.238 395.475 221.750 C 395.539 224.339 395.613 224.383 396.741 222.500 C 397.400 221.400 397.953 221.074 397.970 221.776 C 397.994 222.793 398.557 222.778 400.750 221.702 C 404.245 219.988 407.000 220.592 407.000 223.073 C 407.000 224.133 407.420 225.000 407.933 225.000 C 408.446 225.000 408.875 223.763 408.885 222.250 C 408.921 217.187 409.636 215.487 411.614 215.762 C 412.651 215.906 411.925 215.138 410.000 214.054 C 408.075 212.970 405.600 212.110 404.500 212.142 C 402.869 212.189 402.947 212.324 404.926 212.877 "/></g>
<g fill="#E87698FF" stroke="#E87698FF">
<path d="M 234.534 81.533 C 228.120 88.138 226.156 97.312 229.603 104.575 C 231.238 108.022 238.200 115.000 240.003 115.000 C 241.919 115.000 240.980 112.943 238.661 112.061 C 235.283 110.777 231.224 105.544 229.957 100.842 C 228.195 94.296 229.592 89.350 234.767 83.818 C 240.075 78.143 239.861 76.047 234.534 81.533 "/></g>
<g fill="#CD5E7EFF" stroke="#CD5E7EFF">
<path d="M 313.286 132.109 C 311.479 132.632 308.853 134.637 307.286 136.691 C 304.965 139.735 304.500 141.330 304.500 146.249 C 304.500 151.845 304.706 152.343 308.438 155.763 C 310.604 157.748 312.541 158.876 312.743 158.271 C 312.945 157.665 312.185 156.876 311.055 156.517 C 309.925 156.159 308.944 155.446 308.875 154.933 C 308.806 154.420 308.694 153.573 308.625 153.050 C 308.556 152.528 307.938 151.538 307.250 150.850 C 305.518 149.118 305.681 142.461 307.500 140.643 C 308.325 139.818 309.000 138.739 309.000 138.246 C 309.000 136.778 313.279 133.332 316.500 132.206 C 320.204 130.912 317.691 130.836 313.286 132.109 "/></g>
<g fill="#E87698FF" stroke="#E87698FF">
<path d="M 127.462 215.000 C 128.134 222.993 129.549 238.321 130.599 249.000 C 131.567 258.834 132.342 257.739 131.661 247.500 C 130.627 231.945 128.179 208.845 127.491 208.159 C 127.128 207.796 127.115 210.875 127.462 215.000 "/></g>
<g fill="#FF9AB8FF" stroke="#FF9AB8FF">
<path d="M 103.947 219.013 C 105.942 220.747 106.130 221.301 104.967 222.020 C 104.057 222.583 103.652 224.182 103.847 226.440 C 104.051 228.810 103.460 230.950 102.058 232.919 C 99.845 236.026 100.380 237.236 103.595 236.396 C 105.082 236.007 105.561 234.956 105.641 231.904 C 105.757 227.482 106.679 225.863 107.929 227.886 C 108.504 228.815 108.955 228.881 109.434 228.107 C 109.810 227.498 109.698 227.000 109.184 227.000 C 108.670 227.000 108.250 225.876 108.250 224.503 C 108.250 221.663 106.617 219.349 103.582 217.889 C 101.852 217.056 101.913 217.246 103.947 219.013 "/></g>
<g fill="#CD5E7EFF" stroke="#CD5E7EFF">
<path d="M 103.000 270.250 C 103.001 271.414 106.112 286.372 106.475 286.960 C 106.735 287.379 107.155 289.247 107.409 291.111 C 108.914 302.145 112.492 313.856 111.346 304.000 C 111.058 301.525 110.444 298.150 109.981 296.500 C 109.519 294.850 108.133 288.213 106.903 281.750 C 105.672 275.288 104.291 270.000 103.833 270.000 C 103.375 270.000 103.000 270.113 103.000 270.250 "/></g>
<g fill="#CD5E7EFF" stroke="#CD5E7EFF">
<path d="M 365.954 417.445 C 366.958 418.654 366.969 419.000 366.006 419.000 C 365.259 419.000 364.975 419.795 365.290 421.001 C 365.578 422.102 365.484 422.799 365.080 422.550 C 364.677 422.300 362.295 423.135 359.788 424.404 C 357.281 425.674 351.796 427.521 347.601 428.509 C 343.405 429.497 340.182 430.516 340.439 430.772 C 341.188 431.521 361.000 426.770 361.000 425.842 C 361.000 425.379 361.427 425.113 361.948 425.250 C 363.455 425.647 368.837 421.732 369.319 419.887 C 369.601 418.808 368.849 417.797 367.211 417.050 C 364.952 416.021 364.810 416.066 365.954 417.445 "/></g>
<g fill="#E87698FF" stroke="#E87698FF">
<path d="M 424.500 236.417 C 418.082 239.282 413.000 247.414 413.000 254.819 C 413.000 259.717 414.802 265.000 416.472 265.000 C 417.388 265.000 417.183 263.856 415.746 260.952 C 413.962 257.346 413.867 256.286 414.879 251.249 C 416.465 243.349 421.890 238.031 430.500 235.935 L 433.500 235.205 430.500 235.142 C 428.850 235.107 426.150 235.681 424.500 236.417 "/></g>
<g fill="#FF9AB8FF" stroke="#FF9AB8FF">
<path d="M 184.113 163.225 C 183.595 164.625 183.792 166.651 184.645 168.692 C 185.390 170.476 186.000 173.161 186.000 174.659 C 186.000 177.268 185.939 177.301 184.532 175.441 C 183.138 173.598 183.068 173.652 183.150 176.500 C 183.198 178.150 183.580 180.850 184.000 182.500 L 184.763 185.500 185.024 182.500 C 185.263 179.739 185.341 179.819 186.000 183.500 C 186.711 187.472 186.718 187.477 186.983 184.250 C 187.660 176.002 187.583 174.157 186.346 169.088 C 185.373 165.101 185.317 163.323 186.135 162.338 C 186.953 161.352 186.941 161.000 186.090 161.000 C 185.455 161.000 184.565 162.001 184.113 163.225 "/></g>
<g fill="#FF9AB8FF" stroke="#FF9AB8FF">
<path d="M 219.000 429.930 C 219.000 430.442 217.988 431.056 216.750 431.294 C 215.238 431.586 215.729 431.813 218.250 431.989 C 222.027 432.252 223.372 432.477 224.750 433.076 C 225.163 433.256 220.100 433.671 213.500 434.000 L 201.500 434.598 217.500 434.631 C 226.300 434.649 231.791 434.486 229.701 434.269 C 226.789 433.966 225.686 433.305 224.976 431.437 C 224.332 429.742 223.280 429.000 221.525 429.000 C 220.136 429.000 219.000 429.419 219.000 429.930 "/></g>
<g fill="#E87698FF" stroke="#E87698FF">
<path d="M 235.048 337.762 C 232.420 341.769 231.502 350.306 233.475 352.392 C 234.052 353.001 235.041 354.671 235.673 356.103 C 236.846 358.757 245.000 363.834 245.000 361.910 C 245.000 361.328 243.205 360.097 241.010 359.176 C 238.738 358.221 237.016 356.814 237.010 355.905 C 237.005 355.028 236.178 353.566 235.173 352.657 C 232.559 350.291 233.300 345.330 237.546 336.750 C 239.526 332.749 237.906 333.406 235.048 337.762 "/></g>
<g fill="#E87698FF" stroke="#E87698FF">
<path d="M 313.826 349.797 C 312.453 350.060 312.183 351.226 312.326 356.295 C 312.479 361.728 312.873 362.857 315.594 365.662 C 318.855 369.023 325.239 371.040 326.444 369.090 C 326.880 368.386 325.927 368.000 323.755 368.000 C 318.757 368.000 313.968 362.772 314.093 357.452 C 314.145 355.279 314.482 352.595 314.843 351.489 C 315.343 349.957 315.100 349.554 313.826 349.797 "/></g>
<g fill="#FF9AB8FF" stroke="#FF9AB8FF">
<path d="M 317.332 166.250 C 317.479 168.313 317.239 170.000 316.799 170.000 C 316.360 170.000 316.000 170.750 316.000 171.667 C 316.000 172.583 316.338 172.996 316.750 172.583 C 317.163 172.171 317.583 177.091 317.685 183.518 C 317.900 197.098 318.942 200.282 319.124 187.917 C 319.300 175.996 318.981 170.012 317.956 165.993 L 317.066 162.500 317.332 166.250 "/></g>
<g fill="#CD5E7EFF" stroke="#CD5E7EFF">
<path d="M 166.842 146.250 C 166.271 154.418 169.754 161.104 175.584 163.028 C 180.364 164.605 181.231 163.412 176.685 161.513 C 173.979 160.382 173.205 159.557 173.626 158.250 C 173.983 157.139 173.878 156.925 173.338 157.665 C 172.698 158.541 172.041 158.503 170.686 157.512 C 168.670 156.038 167.697 147.392 169.306 145.250 C 169.961 144.378 169.754 144.000 168.622 144.000 C 167.653 144.000 166.937 144.906 166.842 146.250 "/></g>
<g fill="#FF9AB8FF" stroke="#FF9AB8FF">
<path d="M 118.000 279.918 C 118.000 280.423 117.750 281.487 117.445 282.282 C 117.058 283.292 117.840 283.918 120.037 284.357 C 121.997 284.749 123.378 285.730 123.699 286.958 C 124.170 288.757 124.352 288.791 125.801 287.342 C 127.250 285.893 127.452 285.918 128.124 287.627 C 128.662 288.997 128.874 288.560 128.914 286.000 C 128.951 283.680 128.680 282.957 128.110 283.855 C 127.403 284.972 126.791 284.909 124.634 283.496 C 123.195 282.553 122.308 281.311 122.663 280.736 C 123.024 280.151 122.831 279.986 122.224 280.362 C 121.627 280.731 120.856 280.575 120.510 280.016 C 119.727 278.749 118.000 278.682 118.000 279.918 "/></g>
<g fill="#FF9AB8FF" stroke="#FF9AB8FF">
<path d="M 190.556 186.500 C 190.826 188.700 191.007 193.313 190.958 196.750 C 190.905 200.559 191.286 203.000 191.935 203.000 C 192.521 203.000 193.029 202.213 193.063 201.250 C 193.108 200.023 193.427 200.248 194.131 202.000 C 194.684 203.375 194.888 205.850 194.585 207.500 C 194.130 209.977 194.222 210.181 195.113 208.668 C 196.265 206.711 195.558 200.910 193.757 197.546 C 193.171 196.451 192.585 194.193 192.454 192.528 C 192.324 190.862 191.733 187.925 191.141 186.000 L 190.066 182.500 190.556 186.500 "/></g>
<g fill="#FF9AB8FF" stroke="#FF9AB8FF">
<path d="M 388.937 285.000 C 388.793 285.825 388.607 287.850 388.524 289.500 C 388.027 299.368 387.995 299.536 386.898 298.000 C 386.053 296.817 385.942 297.017 386.371 298.948 C 386.671 300.294 386.373 302.055 385.708 302.861 C 384.761 304.008 384.769 304.416 385.742 304.743 C 386.637 305.045 386.703 305.687 385.977 307.043 C 385.392 308.136 384.346 308.686 383.485 308.356 C 382.668 308.042 382.000 308.284 382.000 308.893 C 382.000 309.502 382.675 310.000 383.500 310.000 C 384.325 310.000 385.029 310.563 385.063 311.250 C 385.170 313.357 387.049 307.842 387.513 304.060 C 387.753 302.102 388.550 297.800 389.284 294.500 C 390.018 291.200 390.300 287.375 389.909 286.000 C 389.505 284.578 389.086 284.147 388.937 285.000 "/></g>
<g fill="#FF9AB8FF" stroke="#FF9AB8FF">
<path d="M 238.000 435.000 C 235.697 435.485 238.431 435.758 246.000 435.798 C 252.325 435.832 258.400 435.473 259.500 435.000 C 261.983 433.933 243.069 433.933 238.000 435.000 "/></g>
<g fill="#E87698FF" stroke="#E87698FF">
<path d="M 53.453 244.319 C 47.596 250.652 45.686 258.094 48.398 264.006 L 50.001 267.500 49.330 263.500 C 48.961 261.300 48.692 258.439 48.731 257.141 C 48.814 254.392 51.641 248.474 54.410 245.254 C 56.934 242.319 56.077 241.481 53.453 244.319 "/></g>
<g fill="#FF9AB8FF" stroke="#FF9AB8FF">
<path d="M 251.000 430.000 C 251.000 430.550 248.723 431.000 245.941 431.000 C 243.061 431.000 241.131 431.402 241.459 431.934 C 242.084 432.945 258.000 433.019 258.000 432.011 C 258.000 431.675 257.460 430.860 256.800 430.200 C 255.349 428.749 251.000 428.599 251.000 430.000 "/></g>
<g fill="#E87698FF" stroke="#E87698FF">
<path d="M 185.207 364.154 C 179.582 369.192 174.776 369.463 170.485 364.984 C 166.624 360.955 165.117 361.651 168.791 365.766 C 171.330 368.609 172.293 369.000 176.768 369.000 C 179.884 369.000 182.420 368.437 183.310 367.548 C 184.108 366.749 185.040 366.374 185.381 366.714 C 185.721 367.055 186.000 366.748 186.000 366.033 C 186.000 365.318 186.788 363.737 187.750 362.521 C 188.713 361.304 187.568 362.039 185.207 364.154 "/></g>
<g fill="#E87698FF" stroke="#E87698FF">
<path d="M 416.666 273.991 C 415.200 275.636 414.000 277.184 414.000 277.430 C 414.000 277.675 412.650 279.355 411.000 281.161 C 409.350 282.968 408.000 284.849 408.000 285.341 C 408.000 285.833 406.627 287.800 404.948 289.712 C 403.269 291.624 402.066 293.699 402.275 294.324 C 402.483 294.948 403.505 294.118 404.547 292.480 C 407.262 288.207 418.320 273.629 419.471 272.804 C 420.005 272.422 420.192 271.859 419.887 271.554 C 419.582 271.248 418.132 272.345 416.666 273.991 "/></g>
<g fill="#E87698FF" stroke="#E87698FF">
<path d="M 107.730 188.000 C 106.706 191.682 111.271 200.433 115.834 203.533 C 117.883 204.926 119.500 205.508 119.500 204.853 C 119.500 204.209 118.098 202.966 116.384 202.092 C 113.000 200.365 111.078 197.006 109.463 190.000 C 108.531 185.957 108.355 185.754 107.730 188.000 "/></g>
<g fill="#FF9AB8FF" stroke="#FF9AB8FF">
<path d="M 113.258 287.250 C 113.830 289.875 116.075 298.820 116.709 301.000 C 117.034 302.118 117.475 301.886 118.443 300.090 C 119.266 298.563 119.454 296.732 118.957 295.090 C 118.214 292.640 118.161 292.689 117.976 296.000 C 117.782 299.481 117.776 299.475 116.820 295.000 C 116.291 292.525 115.723 289.600 115.557 288.500 C 115.391 287.400 115.198 286.163 115.128 285.750 C 115.057 285.338 114.498 285.000 113.883 285.000 C 113.247 285.000 112.978 285.967 113.258 287.250 "/></g>
<g fill="#FF9AB8FF" stroke="#FF9AB8FF">
<path d="M 351.250 420.584 C 347.013 422.437 346.930 424.464 351.125 423.625 C 352.844 423.281 355.656 422.990 357.375 422.978 L 360.500 422.956 358.000 421.000 C 355.098 418.730 355.442 418.751 351.250 420.584 "/></g>
<g fill="#FF9AB8FF" stroke="#FF9AB8FF">
<path d="M 320.146 265.705 C 320.050 268.249 319.509 270.887 318.944 271.568 C 318.233 272.424 318.262 272.921 319.039 273.180 C 319.656 273.385 320.513 275.117 320.943 277.027 C 321.529 279.634 321.752 278.204 321.836 271.293 C 321.949 262.006 320.471 257.119 320.146 265.705 "/></g>
<g fill="#FF9AB8FF" stroke="#FF9AB8FF">
<path d="M 302.562 287.250 C 302.165 290.688 301.764 294.293 301.670 295.263 C 301.577 296.232 301.050 296.924 300.500 296.799 C 299.950 296.675 300.063 296.921 300.750 297.345 C 301.438 297.770 302.088 299.104 302.195 300.309 C 302.407 302.692 302.591 301.287 303.024 294.000 C 303.174 291.469 303.399 291.054 303.834 292.500 C 304.166 293.600 304.451 291.463 304.468 287.752 C 304.486 284.041 304.227 281.003 303.892 281.002 C 303.558 281.001 302.960 283.813 302.562 287.250 "/></g>
<g fill="#FF9AB8FF" stroke="#FF9AB8FF">
<path d="M 301.998 222.505 C 301.449 223.949 301.000 226.424 301.000 228.006 C 301.000 229.588 300.550 231.160 300.000 231.500 C 298.066 232.696 299.028 234.034 301.500 233.586 C 302.875 233.336 304.068 233.553 304.150 234.066 C 304.354 235.339 304.341 233.310 304.135 231.750 C 304.018 230.864 303.658 230.937 302.900 232.000 C 302.091 233.136 301.973 232.681 302.416 230.125 C 302.737 228.269 303.045 225.344 303.100 223.625 C 303.196 220.613 303.228 220.591 304.000 223.000 C 304.745 225.327 304.808 225.349 304.900 223.309 C 305.049 220.034 303.139 219.504 301.998 222.505 "/></g>
<g fill="#FF9AB8FF" stroke="#FF9AB8FF">
<path d="M 185.031 148.833 C 184.464 149.017 184.000 149.606 184.000 150.142 C 184.000 150.679 184.450 150.840 185.000 150.500 C 185.550 150.160 186.000 150.385 186.000 151.000 C 186.000 151.615 186.445 151.843 186.989 151.507 C 187.555 151.157 187.724 151.557 187.384 152.442 C 187.057 153.293 186.464 153.787 186.066 153.541 C 185.667 153.294 185.406 153.974 185.485 155.052 C 185.618 156.853 185.806 156.808 187.815 154.498 C 189.017 153.116 190.000 151.508 190.000 150.925 C 190.000 150.320 190.859 150.138 192.000 150.500 C 193.334 150.923 194.000 150.680 194.000 149.769 C 194.000 148.501 187.996 147.875 185.031 148.833 "/></g>
<g fill="#FF9AB8FF" stroke="#FF9AB8FF">
<path d="M 104.251 240.500 C 103.161 244.005 103.216 244.655 104.695 245.750 C 105.623 246.438 105.959 247.018 105.441 247.040 C 104.924 247.062 105.738 247.751 107.250 248.572 C 108.763 249.393 110.000 250.676 110.000 251.425 C 110.000 252.174 110.655 253.037 111.456 253.345 C 112.578 253.775 112.491 253.211 111.073 250.880 C 110.062 249.218 108.906 247.916 108.504 247.987 C 107.120 248.234 104.923 242.616 105.209 239.561 C 105.454 236.933 105.319 237.065 104.251 240.500 "/></g>
<g fill="#FF9AB8FF" stroke="#FF9AB8FF">
<path d="M 295.600 247.366 C 294.093 252.982 296.165 254.825 298.714 250.136 C 300.435 246.972 300.342 246.323 298.086 245.733 C 296.737 245.380 296.004 245.862 295.600 247.366 "/></g>
<g fill="#E87698FF" stroke="#E87698FF">
<path d="M 259.458 357.148 C 257.213 359.287 255.060 360.206 251.234 360.659 C 248.383 360.996 246.297 361.672 246.599 362.161 C 247.609 363.794 259.990 360.500 260.014 358.592 C 260.022 357.991 260.584 356.769 261.264 355.876 C 261.944 354.983 261.131 355.555 259.458 357.148 "/></g>
<g fill="#E87698FF" stroke="#E87698FF">
<path d="M 398.423 298.480 C 397.366 300.097 395.263 302.775 393.750 304.432 C 392.238 306.090 391.015 308.133 391.033 308.973 C 391.068 310.556 392.657 308.975 396.000 304.032 C 396.825 302.812 398.298 300.874 399.273 299.727 C 400.249 298.579 400.889 297.168 400.697 296.590 C 400.504 296.013 399.481 296.863 398.423 298.480 "/></g>
<g fill="#FF9AB8FF" stroke="#FF9AB8FF">
<path d="M 310.018 195.114 C 309.317 198.202 308.990 201.352 309.292 202.114 C 309.602 202.895 309.877 202.443 309.921 201.079 C 309.964 199.747 310.640 197.947 311.422 197.079 C 312.204 196.210 313.141 194.150 313.503 192.500 C 313.952 190.456 313.856 189.934 313.202 190.863 C 312.392 192.014 312.168 192.014 311.768 190.863 C 311.507 190.113 310.719 192.026 310.018 195.114 "/></g>
<g fill="#FF9AB8FF" stroke="#FF9AB8FF">
<path d="M 114.317 258.173 C 114.460 260.415 114.977 261.508 115.770 261.243 C 116.588 260.971 116.780 261.449 116.341 262.666 C 115.978 263.675 116.052 264.164 116.505 263.752 C 116.958 263.341 118.366 264.691 119.633 266.752 C 121.008 268.988 121.950 269.823 121.969 268.821 C 121.986 267.898 121.385 266.528 120.633 265.776 C 119.882 265.025 118.103 262.223 116.680 259.551 L 114.094 254.692 114.317 258.173 "/></g>
<g fill="#FF9AB8FF" stroke="#FF9AB8FF">
<path d="M 401.641 235.773 C 401.814 236.473 401.143 237.857 400.151 238.849 C 397.556 241.444 396.923 243.678 398.053 246.249 C 398.980 248.358 399.019 248.327 398.660 245.750 C 398.450 244.238 398.665 243.000 399.139 243.000 C 399.612 243.000 400.000 242.395 400.000 241.655 C 400.000 239.763 403.041 237.266 406.000 236.727 C 408.156 236.335 408.065 236.254 405.333 236.136 C 403.592 236.061 401.978 235.663 401.747 235.250 C 401.517 234.838 401.469 235.073 401.641 235.773 "/></g>
<g fill="#CD5E7EFF" stroke="#CD5E7EFF">
<path d="M 182.500 347.361 C 181.400 347.987 180.312 348.613 180.082 348.752 C 179.852 348.890 180.265 350.127 181.001 351.502 C 182.284 353.899 186.000 355.037 186.000 353.031 C 186.000 352.499 185.397 352.294 184.660 352.577 C 183.923 352.860 182.715 352.361 181.975 351.469 C 180.843 350.105 180.855 349.708 182.050 348.969 C 182.990 348.388 183.750 348.589 184.295 349.562 C 184.826 350.512 185.642 350.740 186.597 350.206 C 187.867 349.495 187.823 349.155 186.288 347.800 C 184.874 346.552 184.082 346.460 182.500 347.361 "/></g>
<g fill="#FF9AB8FF" stroke="#FF9AB8FF">
<path d="M 407.292 227.515 C 406.078 228.362 403.940 228.847 402.542 228.593 C 399.922 228.118 399.482 228.638 400.778 230.675 C 401.899 232.438 408.878 230.022 409.227 227.750 C 409.478 226.118 409.323 226.099 407.292 227.515 "/></g>
<g fill="#FF9AB8FF" stroke="#FF9AB8FF">
<path d="M 87.667 225.667 C 86.463 226.870 86.970 229.774 88.485 230.356 C 89.916 230.905 92.000 228.362 92.000 226.066 C 92.000 224.899 88.735 224.598 87.667 225.667 "/></g>
<g fill="#E87698FF" stroke="#E87698FF">
<path d="M 131.380 258.750 C 131.663 259.713 132.202 264.228 132.579 268.785 C 132.956 273.341 133.460 276.873 133.700 276.634 C 134.539 275.794 132.716 257.000 131.796 257.000 C 131.284 257.000 131.097 257.788 131.380 258.750 "/></g>
<g fill="#FF9AB8FF" stroke="#FF9AB8FF">
<path d="M 372.635 288.375 C 372.836 289.956 373.052 292.656 373.116 294.375 C 373.180 296.094 373.438 296.713 373.689 295.750 C 373.941 294.788 374.538 294.000 375.017 294.000 C 375.495 294.000 375.733 292.313 375.545 290.250 C 375.357 288.188 375.157 287.063 375.101 287.750 C 374.950 289.621 373.203 289.256 372.704 287.250 C 372.465 286.288 372.434 286.794 372.635 288.375 "/></g>
<g fill="#FF9AB8FF" stroke="#FF9AB8FF">
<path d="M 191.653 258.212 C 191.190 259.158 191.258 262.738 191.804 266.212 L 192.792 272.500 192.641 264.500 C 192.545 259.411 192.186 257.123 191.653 258.212 "/></g>
<g fill="#FF9AB8FF" stroke="#FF9AB8FF">
<path d="M 94.460 215.935 C 94.868 216.596 93.901 217.270 91.999 217.650 C 88.989 218.252 85.078 222.411 86.337 223.670 C 86.671 224.004 87.407 223.060 87.973 221.572 C 88.768 219.481 89.456 219.010 91.001 219.500 C 92.100 219.849 93.000 219.764 93.000 219.311 C 93.000 218.859 94.463 217.816 96.250 216.994 L 99.500 215.500 96.644 215.173 C 94.776 214.960 94.020 215.224 94.460 215.935 "/></g>
<g fill="#E87698FF" stroke="#E87698FF">
<path d="M 94.742 214.085 C 93.775 214.648 92.468 214.789 91.838 214.400 C 91.130 213.962 90.964 214.133 91.405 214.845 C 91.827 215.530 91.483 216.000 90.559 216.000 C 89.702 216.000 89.000 216.450 89.000 217.000 C 89.000 218.123 91.039 218.306 93.412 217.395 C 94.279 217.063 94.740 216.388 94.435 215.895 C 94.131 215.403 95.034 215.000 96.441 215.000 C 97.848 215.000 99.000 214.550 99.000 214.000 C 99.000 212.726 97.007 212.766 94.742 214.085 "/></g>
<g fill="#E87698FF" stroke="#E87698FF">
<path d="M 113.433 173.191 C 109.925 177.186 109.249 178.406 108.552 182.000 C 107.994 184.874 108.437 184.381 111.029 179.250 C 112.765 175.813 114.631 173.000 115.176 173.000 C 115.721 173.000 116.008 172.523 115.814 171.941 C 115.619 171.358 114.548 171.920 113.433 173.191 "/></g>
<g fill="#FF9AB8FF" stroke="#FF9AB8FF">
<path d="M 201.820 229.659 C 201.460 232.755 202.968 238.000 204.219 238.000 C 204.649 238.000 205.067 239.463 205.150 241.250 C 205.293 244.361 205.318 244.380 205.722 241.690 C 205.954 240.144 205.657 238.292 205.062 237.574 C 204.466 236.857 203.709 234.296 203.379 231.885 C 202.645 226.514 202.251 225.952 201.820 229.659 "/></g>
<g fill="#FF9AB8FF" stroke="#FF9AB8FF">
<path d="M 96.543 226.250 C 95.383 229.928 95.435 234.000 96.642 234.000 C 97.354 234.000 97.696 233.371 97.400 232.601 C 97.105 231.832 97.344 230.905 97.932 230.542 C 99.301 229.696 99.332 225.000 97.969 225.000 C 97.401 225.000 96.760 225.563 96.543 226.250 "/></g>
<g fill="#E87698FF" stroke="#E87698FF">
<path d="M 356.330 209.023 C 354.587 212.860 353.477 216.000 353.864 216.000 C 354.869 216.000 360.280 204.334 359.854 203.085 C 359.659 202.513 358.074 205.185 356.330 209.023 "/></g>
<g fill="#FF9AB8FF" stroke="#FF9AB8FF">
<path d="M 196.315 210.508 C 195.661 211.208 195.530 212.134 196.016 212.626 C 196.492 213.107 197.116 214.811 197.404 216.413 C 197.691 218.016 198.393 219.793 198.963 220.363 C 199.534 220.934 200.000 222.210 200.000 223.200 C 200.000 224.190 200.408 225.113 200.906 225.250 C 201.404 225.388 200.920 223.025 199.831 220.000 C 198.742 216.975 197.766 213.322 197.664 211.882 C 197.519 209.842 197.221 209.538 196.315 210.508 "/></g>
<g fill="#FF9AB8FF" stroke="#FF9AB8FF">
<path d="M 335.335 426.022 C 336.894 426.490 338.723 426.660 339.400 426.400 C 340.077 426.140 341.726 426.366 343.065 426.901 C 344.404 427.436 344.938 427.969 344.250 428.087 C 343.467 428.220 343.436 428.337 344.167 428.400 C 344.808 428.455 345.502 427.995 345.708 427.377 C 346.191 425.927 342.677 425.008 337.000 425.100 C 332.926 425.165 332.768 425.252 335.335 426.022 "/></g>
<g fill="#FF9AB8FF" stroke="#FF9AB8FF">
<path d="M 414.825 222.500 C 414.453 223.600 413.863 225.925 413.514 227.666 C 413.164 229.408 412.202 231.092 411.376 231.409 C 410.549 231.726 410.153 232.439 410.496 232.993 C 410.838 233.547 410.604 234.000 409.976 234.000 C 409.347 234.000 409.019 234.557 409.246 235.237 C 409.977 237.432 414.837 228.631 415.174 224.500 C 415.359 222.224 415.209 221.362 414.825 222.500 "/></g>
<g fill="#FF9AB8FF" stroke="#FF9AB8FF">
<path d="M 187.714 156.776 C 185.750 158.827 185.389 159.667 186.473 159.667 C 187.313 159.667 188.000 159.217 188.000 158.667 C 188.000 158.117 188.284 157.951 188.631 158.298 C 189.704 159.371 193.002 157.027 192.970 155.215 C 192.944 153.744 192.766 153.784 191.720 155.500 C 190.614 157.314 190.499 157.332 190.492 155.693 C 190.485 154.208 189.989 154.402 187.714 156.776 "/></g>
<g fill="#FF9AB8FF" stroke="#FF9AB8FF">
<path d="M 192.000 212.167 C 192.000 215.558 192.320 218.013 192.711 217.622 C 193.673 216.660 193.719 206.000 192.761 206.000 C 192.342 206.000 192.000 208.775 192.000 212.167 "/></g>
<g fill="#CD5E7EFF" stroke="#CD5E7EFF">
<path d="M 328.750 347.689 C 326.604 348.250 326.597 348.455 328.615 351.535 C 330.243 354.020 333.000 354.904 333.000 352.941 C 333.000 352.359 332.610 352.123 332.134 352.417 C 331.657 352.712 330.462 352.063 329.479 350.976 C 327.739 349.054 327.764 349.000 330.404 349.000 C 331.959 349.000 332.854 348.573 332.500 348.000 C 331.856 346.958 331.624 346.938 328.750 347.689 "/></g>
<g fill="#FF9AB8FF" stroke="#FF9AB8FF">
<path d="M 265.000 416.000 C 265.000 416.550 266.800 417.000 269.000 417.000 C 271.200 417.000 273.000 416.550 273.000 416.000 C 273.000 415.450 271.200 415.000 269.000 415.000 C 266.800 415.000 265.000 415.450 265.000 416.000 "/></g>
<g fill="#FF9AB8FF" stroke="#FF9AB8FF">
<path d="M 394.030 263.125 C 394.014 265.119 393.777 268.269 393.504 270.125 C 393.229 271.997 393.687 271.145 394.532 268.211 C 395.593 264.526 395.753 262.402 395.058 261.211 C 394.262 259.845 394.055 260.231 394.030 263.125 "/></g>
<g fill="#FF9AB8FF" stroke="#FF9AB8FF">
<path d="M 172.462 143.305 C 170.603 144.367 170.627 144.428 172.912 144.463 C 174.239 144.483 175.550 145.175 175.825 146.000 C 176.254 147.286 176.088 147.304 174.663 146.128 C 173.232 144.946 173.000 144.981 173.000 146.378 C 173.000 148.118 174.707 148.473 176.771 147.162 C 177.760 146.535 177.640 145.891 176.234 144.269 C 174.754 142.564 174.066 142.388 172.462 143.305 "/></g>
<g fill="#FF9AB8FF" stroke="#FF9AB8FF">
<path d="M 388.610 255.822 C 388.040 256.744 391.672 261.661 392.392 260.941 C 392.683 260.651 392.669 259.451 392.362 258.276 C 391.786 256.073 389.414 254.521 388.610 255.822 "/></g>
<g fill="#CD5E7EFF" stroke="#CD5E7EFF">
<path d="M 173.500 137.341 C 170.872 138.654 167.622 142.374 168.769 142.756 C 169.263 142.921 170.980 141.545 172.584 139.699 C 174.798 137.151 175.018 136.583 173.500 137.341 "/></g>
<g fill="#FF9AB8FF" stroke="#FF9AB8FF">
<path d="M 317.411 285.500 C 316.836 287.975 316.734 290.000 317.183 290.000 C 317.632 290.000 318.000 289.127 318.000 288.059 C 318.000 286.991 318.450 285.840 319.000 285.500 C 320.170 284.777 320.361 281.000 319.227 281.000 C 318.802 281.000 317.985 283.025 317.411 285.500 "/></g>
<g fill="#FF9AB8FF" stroke="#FF9AB8FF">
<path d="M 309.500 274.000 C 309.840 274.550 311.415 275.000 313.000 275.000 C 314.585 275.000 316.160 274.550 316.500 274.000 C 316.874 273.395 315.491 273.000 313.000 273.000 C 310.509 273.000 309.126 273.395 309.500 274.000 "/></g>
<g fill="#FF9AB8FF" stroke="#FF9AB8FF">
<path d="M 123.012 269.261 C 123.005 269.679 123.859 271.929 124.909 274.261 C 125.959 276.592 127.049 279.175 127.330 280.000 C 127.666 280.983 127.869 280.759 127.921 279.352 C 127.964 278.171 126.880 275.246 125.512 272.852 C 124.144 270.458 123.019 268.842 123.012 269.261 "/></g>
<g fill="#FF9AB8FF" stroke="#FF9AB8FF">
<path d="M 199.532 252.900 C 198.749 255.365 199.558 257.000 201.559 257.000 C 203.334 257.000 203.335 256.875 201.596 253.523 C 200.259 250.945 200.162 250.915 199.532 252.900 "/></g>
<g fill="#FF9AB8FF" stroke="#FF9AB8FF">
<path d="M 195.000 237.500 C 195.000 239.425 195.450 241.000 196.000 241.000 C 196.550 241.000 197.000 239.425 197.000 237.500 C 197.000 235.575 196.550 234.000 196.000 234.000 C 195.450 234.000 195.000 235.575 195.000 237.500 "/></g>
<g fill="#FF9AB8FF" stroke="#FF9AB8FF">
<path d="M 95.250 219.662 C 94.563 219.940 94.000 220.627 94.000 221.190 C 94.000 221.753 94.698 221.946 95.552 221.618 C 96.540 221.239 96.853 221.429 96.413 222.141 C 95.997 222.814 96.275 223.075 97.111 222.797 C 97.875 222.542 98.645 221.584 98.823 220.667 C 99.139 219.038 97.759 218.650 95.250 219.662 "/></g>
<g fill="#FF9AB8FF" stroke="#FF9AB8FF">
<path d="M 210.162 418.465 C 206.587 420.464 209.107 421.089 213.040 419.180 C 215.721 417.878 216.050 417.461 214.500 417.329 C 213.400 417.234 211.448 417.746 210.162 418.465 "/></g>
<g fill="#E87698FF" stroke="#E87698FF">
<path d="M 329.750 366.392 C 327.485 368.111 327.531 369.000 329.883 369.000 C 330.926 369.000 332.000 368.107 332.290 367.000 C 332.894 364.688 332.211 364.524 329.750 366.392 "/></g>
<g fill="#E87698FF" stroke="#E87698FF">
<path d="M 167.049 350.216 C 165.231 353.077 164.916 354.830 166.089 355.555 C 166.590 355.865 167.000 355.218 167.000 354.118 C 167.000 353.018 167.475 351.825 168.055 351.466 C 168.636 351.107 168.973 350.165 168.805 349.373 C 168.588 348.348 168.081 348.591 167.049 350.216 "/></g>
<g fill="#FF9AB8FF" stroke="#FF9AB8FF">
<path d="M 312.141 203.309 C 312.063 206.504 312.353 208.900 312.785 208.633 C 313.216 208.366 313.280 205.752 312.926 202.824 L 312.282 197.500 312.141 203.309 "/></g>
<g fill="#FF9AB8FF" stroke="#FF9AB8FF">
<path d="M 326.365 137.073 C 327.814 138.212 329.000 139.732 329.000 140.450 C 329.000 141.168 329.745 142.373 330.655 143.128 C 332.192 144.403 332.194 144.278 330.678 141.345 C 328.776 137.665 326.304 135.000 324.794 135.000 C 324.209 135.000 324.916 135.933 326.365 137.073 "/></g>
<g fill="#FF9AB8FF" stroke="#FF9AB8FF">
<path d="M 330.500 430.000 L 327.500 430.763 330.500 430.782 C 332.150 430.792 334.625 430.440 336.000 430.000 L 338.500 429.199 336.000 429.218 C 334.625 429.228 332.150 429.580 330.500 430.000 "/></g>
<g fill="#FF9AB8FF" stroke="#FF9AB8FF">
<path d="M 321.000 425.992 C 321.000 426.537 322.352 426.835 324.004 426.654 C 328.439 426.169 328.908 425.000 324.667 425.000 C 322.650 425.000 321.000 425.446 321.000 425.992 "/></g>
<g fill="#FF9AB8FF" stroke="#FF9AB8FF">
<path d="M 313.500 291.297 C 313.093 293.385 313.039 295.372 313.380 295.713 C 313.721 296.054 314.032 295.021 314.070 293.417 C 314.131 290.884 314.254 290.763 315.000 292.500 C 316.115 295.096 316.162 292.247 315.049 289.500 C 314.366 287.813 314.123 288.094 313.500 291.297 "/></g>
<g fill="#FF9AB8FF" stroke="#FF9AB8FF">
<path d="M 391.316 278.469 C 390.665 280.510 390.432 282.927 390.798 283.840 C 391.485 285.550 391.556 285.246 392.241 277.629 C 392.461 275.187 392.323 275.312 391.316 278.469 "/></g>
<g fill="#FF9AB8FF" stroke="#FF9AB8FF">
<path d="M 194.628 426.421 C 193.026 427.731 191.996 429.373 192.299 430.135 C 192.679 431.089 192.866 430.973 192.921 429.750 C 192.964 428.788 193.381 428.000 193.847 428.000 C 194.313 428.000 195.732 427.100 197.000 426.000 C 200.242 423.189 198.120 423.565 194.628 426.421 "/></g>
<g fill="#FF9AB8FF" stroke="#FF9AB8FF">
<path d="M 338.638 416.500 C 338.968 417.358 340.345 417.950 341.857 417.884 C 343.551 417.810 343.872 417.604 342.750 417.311 C 341.788 417.059 341.000 416.436 341.000 415.927 C 341.000 415.417 340.339 415.000 339.531 415.000 C 338.637 415.000 338.288 415.586 338.638 416.500 "/></g>
<g fill="#FF9AB8FF" stroke="#FF9AB8FF">
<path d="M 310.500 414.000 C 307.824 414.681 307.770 414.763 310.000 414.763 C 311.375 414.763 313.850 414.420 315.500 414.000 C 318.176 413.319 318.230 413.237 316.000 413.237 C 314.625 413.237 312.150 413.580 310.500 414.000 "/></g>
<g fill="#FF9AB8FF" stroke="#FF9AB8FF">
<path d="M 304.100 306.250 C 304.045 308.313 304.450 310.000 305.000 310.000 C 306.145 310.000 306.145 308.575 305.000 305.000 C 304.285 302.769 304.189 302.903 304.100 306.250 "/></g>
<g fill="#FF9AB8FF" stroke="#FF9AB8FF">
<path d="M 181.000 142.015 C 179.667 142.891 179.667 143.108 181.000 143.968 C 182.029 144.632 182.626 144.553 182.900 143.718 C 183.120 143.048 183.795 142.169 184.400 141.765 C 185.112 141.290 184.970 141.031 184.000 141.031 C 183.175 141.031 181.825 141.474 181.000 142.015 "/></g>
<g fill="#FF9AB8FF" stroke="#FF9AB8FF">
<path d="M 186.111 139.888 C 187.217 143.060 188.392 143.792 189.500 142.000 C 189.840 141.450 189.390 141.000 188.500 141.000 C 187.610 141.000 187.129 140.601 187.430 140.113 C 187.731 139.626 187.314 138.675 186.502 138.002 C 185.221 136.939 185.169 137.188 186.111 139.888 "/></g>
<g fill="#CD5E7EFF" stroke="#CD5E7EFF">
<path d="M 258.761 339.530 C 259.244 342.054 257.783 342.776 255.299 341.242 C 254.638 340.834 254.745 341.113 255.536 341.862 C 256.327 342.611 257.655 342.963 258.487 342.643 C 260.104 342.023 260.567 338.468 259.144 337.589 C 258.674 337.298 258.501 338.172 258.761 339.530 "/></g>
<g fill="#FF9AB8FF" stroke="#FF9AB8FF">
<path d="M 131.750 316.571 C 130.617 317.723 130.851 321.000 132.066 321.000 C 132.653 321.000 132.990 319.832 132.816 318.404 C 132.642 316.976 132.163 316.151 131.750 316.571 "/></g>
<g fill="#FF9AB8FF" stroke="#FF9AB8FF">
<path d="M 396.637 251.680 C 395.270 253.512 395.071 254.471 395.887 255.287 C 396.704 256.104 397.000 255.831 397.000 254.259 C 397.000 253.081 397.474 251.825 398.053 251.467 C 398.632 251.110 398.969 250.450 398.803 250.001 C 398.636 249.552 397.662 250.308 396.637 251.680 "/></g>
<g fill="#FF9AB8FF" stroke="#FF9AB8FF">
<path d="M 186.116 189.643 C 186.052 190.822 186.675 192.045 187.500 192.362 C 188.558 192.767 188.995 192.283 188.985 190.719 C 188.973 189.046 188.752 188.843 188.086 189.895 C 187.376 191.016 187.107 190.918 186.717 189.395 C 186.288 187.720 186.219 187.749 186.116 189.643 "/></g>
<g fill="#CD5E7EFF" stroke="#CD5E7EFF">
<path d="M 257.496 347.007 C 257.153 347.561 257.596 348.292 258.480 348.631 C 260.394 349.365 261.461 348.556 260.541 347.067 C 259.711 345.723 258.306 345.696 257.496 347.007 "/></g>
<g fill="#FF9AB8FF" stroke="#FF9AB8FF">
<path d="M 130.556 296.556 C 130.179 298.562 130.071 300.404 130.315 300.649 C 130.560 300.893 131.068 299.451 131.444 297.444 C 131.821 295.438 131.929 293.596 131.685 293.351 C 131.440 293.107 130.932 294.549 130.556 296.556 "/></g>
<g fill="#FF9AB8FF" stroke="#FF9AB8FF">
<path d="M 305.000 284.000 C 305.000 284.550 305.900 285.000 307.000 285.000 C 308.100 285.000 309.000 284.550 309.000 284.000 C 309.000 283.450 308.100 283.000 307.000 283.000 C 305.900 283.000 305.000 283.450 305.000 284.000 "/></g>
<g fill="#FF9AB8FF" stroke="#FF9AB8FF">
<path d="M 116.229 274.188 C 116.847 276.042 119.000 276.349 119.000 274.583 C 119.000 273.713 118.288 273.000 117.417 273.000 C 116.546 273.000 116.011 273.534 116.229 274.188 "/></g>
<g fill="#FF9AB8FF" stroke="#FF9AB8FF">
<path d="M 110.518 272.943 C 110.133 274.157 110.083 275.417 110.409 275.742 C 110.734 276.067 111.032 275.471 111.070 274.417 C 111.137 272.585 111.179 272.589 112.000 274.500 C 112.567 275.819 112.878 275.989 112.914 275.000 C 112.945 274.175 112.575 272.878 112.094 272.118 C 111.410 271.038 111.066 271.218 110.518 272.943 "/></g>
<g fill="#FF9AB8FF" stroke="#FF9AB8FF">
<path d="M 380.583 268.643 C 379.746 270.825 380.858 271.839 382.039 269.971 C 383.222 268.101 383.247 267.000 382.107 267.000 C 381.616 267.000 380.930 267.739 380.583 268.643 "/></g>
<g fill="#FF9AB8FF" stroke="#FF9AB8FF">
<path d="M 106.725 232.273 C 106.428 233.048 106.531 234.241 106.953 234.925 C 107.520 235.842 107.898 235.708 108.394 234.417 C 108.763 233.454 108.661 232.261 108.166 231.766 C 107.632 231.232 107.045 231.439 106.725 232.273 "/></g>
<g fill="#CD5E7EFF" stroke="#CD5E7EFF">
<path d="M 251.570 335.887 C 251.269 336.374 251.805 337.387 252.761 338.137 C 254.366 339.395 254.385 339.353 253.000 337.589 C 251.591 335.794 251.665 335.709 254.220 336.194 C 255.716 336.479 256.702 336.326 256.411 335.856 C 255.716 334.732 252.270 334.754 251.570 335.887 "/></g>
<g fill="#E87698FF" stroke="#E87698FF">
<path d="M 121.500 206.000 C 121.840 206.550 123.104 206.993 124.309 206.985 C 126.090 206.972 126.219 206.788 125.000 206.000 C 123.030 204.727 120.713 204.727 121.500 206.000 "/></g>
<g fill="#FF9AB8FF" stroke="#FF9AB8FF">
<path d="M 133.000 327.376 C 133.000 327.648 133.534 329.137 134.186 330.685 L 135.372 333.500 135.117 330.766 C 134.976 329.262 134.442 327.773 133.931 327.457 C 133.419 327.141 133.000 327.104 133.000 327.376 "/></g>
<g fill="#FF9AB8FF" stroke="#FF9AB8FF">
<path d="M 373.171 324.097 C 371.275 327.134 372.416 327.541 374.388 324.531 C 375.300 323.139 375.694 322.000 375.264 322.000 C 374.833 322.000 373.892 322.944 373.171 324.097 "/></g>
<g fill="#FF9AB8FF" stroke="#FF9AB8FF">
<path d="M 369.070 324.750 C 369.133 327.187 369.238 327.272 370.000 325.500 C 371.174 322.769 371.174 322.000 370.000 322.000 C 369.450 322.000 369.032 323.238 369.070 324.750 "/></g>
<g fill="#FF9AB8FF" stroke="#FF9AB8FF">
<path d="M 188.571 291.000 C 188.930 292.375 189.624 293.928 190.112 294.450 C 191.540 295.977 191.102 293.786 189.423 291.000 L 187.917 288.500 188.571 291.000 "/></g>
<g fill="#FF9AB8FF" stroke="#FF9AB8FF">
<path d="M 313.437 283.102 C 312.963 283.869 313.112 284.049 313.845 283.595 C 314.480 283.203 315.000 283.359 315.000 283.941 C 315.000 284.523 315.488 285.000 316.083 285.000 C 317.431 285.000 316.773 282.758 315.279 282.260 C 314.676 282.059 313.848 282.438 313.437 283.102 "/></g>
<g fill="#FF9AB8FF" stroke="#FF9AB8FF">
<path d="M 303.750 253.572 C 302.631 254.708 302.845 257.000 304.070 257.000 C 304.658 257.000 304.995 256.057 304.820 254.905 C 304.644 253.753 304.163 253.153 303.750 253.572 "/></g>
<g fill="#FF9AB8FF" stroke="#FF9AB8FF">
<path d="M 298.498 238.257 C 298.858 240.083 298.643 240.927 297.860 240.757 C 297.041 240.579 297.013 240.735 297.770 241.266 C 299.435 242.435 300.129 240.470 298.979 237.842 C 298.007 235.621 297.982 235.642 298.498 238.257 "/></g>
<g fill="#FF9AB8FF" stroke="#FF9AB8FF">
<path d="M 94.000 236.000 C 95.970 237.273 98.287 237.273 97.500 236.000 C 97.160 235.450 95.896 235.007 94.691 235.015 C 92.910 235.028 92.781 235.212 94.000 236.000 "/></g>
<g fill="#FF9AB8FF" stroke="#FF9AB8FF">
<path d="M 179.500 139.000 C 179.160 139.550 179.809 140.000 180.941 140.000 C 182.073 140.000 183.000 139.550 183.000 139.000 C 183.000 138.450 182.352 138.000 181.559 138.000 C 180.766 138.000 179.840 138.450 179.500 139.000 "/></g>
<g fill="#FF9AB8FF" stroke="#FF9AB8FF">
<path d="M 173.533 139.963 C 171.796 141.883 171.814 141.900 174.370 140.713 C 175.808 140.046 176.988 139.163 176.992 138.750 C 177.006 137.385 175.336 137.971 173.533 139.963 "/></g>
<g fill="#FF9AB8FF" stroke="#FF9AB8FF">
<path d="M 315.475 134.040 C 315.054 134.722 315.808 134.846 317.666 134.399 C 321.498 133.479 321.860 133.000 318.726 133.000 C 317.291 133.000 315.829 133.468 315.475 134.040 "/></g>
</svg>
